<?xml version="1.0" standalone="no"?>
<!DOCTYPE svg PUBLIC "-//W3C//DTD SVG 20010904//EN"
 "http://www.w3.org/TR/2001/REC-SVG-20010904/DTD/svg10.dtd">
<svg version="1.0" xmlns="http://www.w3.org/2000/svg"
 width="512.000000pt" height="512.000000pt" viewBox="0 0 512.000000 512.000000"
 preserveAspectRatio="xMidYMid meet">
<metadata>
Created by potrace 1.11, written by Peter Selinger 2001-2013
</metadata>
<g transform="translate(0.000000,512.000000) scale(0.100000,-0.100000)"
fill="#000000" stroke="none">
<path d="M498 5113 c7 -3 16 -2 19 1 4 3 -2 6 -13 5 -11 0 -14 -3 -6 -6z"/>
<path d="M1050 5105 c11 -13 9 -20 -11 -41 l-24 -26 29 14 c21 9 31 9 33 2 2
-6 10 -20 18 -30 13 -17 14 -15 12 23 -1 24 -7 43 -13 43 -6 0 -17 7 -24 15
-7 8 -17 15 -22 15 -6 0 -5 -7 2 -15z"/>
<path d="M1169 5111 c11 -7 11 -9 0 -13 -8 -3 -11 -8 -7 -12 8 -9 48 11 48 24
0 6 -12 10 -27 10 -20 0 -24 -3 -14 -9z"/>
<path d="M1255 5110 c-8 -13 15 -13 35 0 12 8 11 10 -7 10 -12 0 -25 -4 -28
-10z"/>
<path d="M1443 5101 c3 -13 -5 -26 -25 -41 -34 -25 -32 -35 5 -21 19 8 27 7
31 -5 8 -21 26 -17 26 5 0 11 5 23 12 27 7 5 4 10 -10 15 -12 5 -22 15 -22 24
0 8 -5 15 -11 15 -6 0 -9 -9 -6 -19z"/>
<path d="M1492 5109 c3 -8 15 -15 27 -17 16 -3 20 -8 16 -23 -7 -21 5 -25 23
-7 19 19 14 36 -10 43 -13 4 -31 9 -42 12 -12 3 -17 1 -14 -8z"/>
<path d="M1602 5108 c2 -6 12 -16 22 -22 13 -9 20 -7 32 9 10 14 11 21 3 24
-6 2 -15 -2 -19 -9 -5 -9 -9 -9 -14 -1 -9 15 -29 14 -24 -1z"/>
<path d="M1700 5108 c0 -22 17 -41 29 -34 19 12 13 46 -9 46 -11 0 -20 -6 -20
-12z"/>
<path d="M1780 5111 c0 -5 7 -11 15 -15 9 -3 15 0 15 9 0 8 -7 15 -15 15 -8 0
-15 -4 -15 -9z"/>
<path d="M2535 5070 c0 -33 4 -50 13 -50 13 0 17 56 6 84 -11 30 -19 16 -19
-34z"/>
<path d="M3060 5107 c0 -8 7 -58 15 -113 21 -136 21 -134 -17 -134 -17 0 -191
-20 -387 -44 -226 -28 -417 -46 -522 -50 l-167 -5 -6 31 c-11 56 -7 88 11 88
9 0 14 3 11 6 -12 11 -543 -109 -922 -207 -82 -22 -150 -38 -152 -36 -2 2 -6
23 -9 47 -3 25 -14 72 -25 105 -10 33 -27 94 -36 135 -9 41 -21 80 -26 85 -7
7 -9 2 -4 -15 7 -27 20 -137 20 -185 l1 -30 -110 -12 c-139 -16 -161 -20 -106
-22 25 0 93 -13 152 -27 l108 -26 7 -36 c10 -54 41 -110 65 -117 16 -5 20 -13
16 -31 -2 -13 0 -24 4 -24 5 0 9 -10 10 -22 1 -13 5 -3 10 21 5 24 10 46 12
48 3 2 48 13 102 23 53 11 102 23 107 27 18 10 2 -80 -62 -357 -135 -588 -160
-680 -182 -680 -11 0 -112 20 -224 45 -112 25 -280 61 -372 80 -93 19 -215 46
-272 59 -58 14 -106 24 -107 22 -1 -1 1 -49 6 -107 4 -57 4 -108 -1 -114 -4
-5 -8 -234 -8 -509 l0 -499 277 7 c153 4 279 9 282 12 2 2 -3 12 -11 21 -9 10
-18 25 -22 33 -3 8 -3 1 0 -16 4 -27 2 -30 -18 -28 -13 1 -30 3 -39 3 -9 1
-28 12 -43 26 -16 15 -26 19 -26 11 0 -13 -13 -22 -35 -25 -13 -1 -13 22 0 31
6 5 6 8 -2 8 -7 0 -10 7 -7 18 5 14 4 14 -4 2 -6 -8 -8 -18 -6 -22 3 -4 1 -8
-5 -8 -12 0 -3 143 10 148 4 2 4 13 0 25 -13 35 23 405 59 606 6 30 10 69 10
88 0 18 3 33 8 33 4 0 43 -4 87 -10 44 -5 154 -14 245 -21 91 -6 170 -14 175
-17 6 -4 36 -7 68 -8 32 -1 60 -3 62 -6 2 -2 -2 -21 -9 -42 -12 -35 -14 -36
-20 -15 l-7 24 -16 -22 c-12 -18 -25 -23 -59 -23 -32 0 -44 -4 -44 -15 0 -11
11 -15 40 -15 36 0 40 -2 40 -25 0 -34 16 -31 29 5 12 37 29 39 33 3 4 -36 22
-39 36 -8 10 21 18 26 40 23 27 -3 29 -8 17 -39 -5 -13 4 -19 42 -28 51 -12
123 -12 123 0 0 4 8 15 17 25 10 9 16 28 15 41 -3 17 0 21 12 17 16 -6 55 -10
120 -13 l39 -1 -6 -47 c-3 -27 -13 -102 -22 -168 -27 -205 -55 -446 -65 -550
l-9 -99 37 -32 c24 -21 39 -28 43 -20 3 6 30 110 59 231 29 121 66 274 82 340
17 66 40 158 51 205 12 47 22 87 23 89 2 1 38 -4 82 -13 98 -20 95 -20 82 4
-8 15 -8 20 3 20 18 0 36 -20 31 -35 -3 -7 16 -16 53 -24 32 -7 132 -30 223
-51 91 -21 260 -60 375 -86 116 -26 214 -51 219 -55 6 -5 -1 -52 -17 -116 -14
-59 -36 -155 -47 -213 -22 -104 -59 -266 -125 -538 -19 -78 -35 -148 -35 -156
0 -9 15 -17 39 -21 67 -11 71 -18 81 -143 5 -62 12 -116 15 -121 3 -5 1 -12
-4 -15 -5 -4 -9 -41 -9 -84 0 -42 -7 -142 -16 -222 -9 -80 -25 -234 -36 -343
-10 -110 -21 -201 -23 -204 -3 -2 -31 -1 -61 2 -44 6 -54 10 -46 20 16 19 -5
67 -27 63 -25 -5 -28 -37 -6 -54 16 -14 11 -15 -52 -9 -58 5 -197 29 -292 50
-17 4 -23 13 -23 32 0 34 30 143 40 143 4 0 17 -35 30 -77 12 -43 27 -84 33
-90 34 -44 29 35 -9 133 -13 33 -24 69 -24 79 0 17 1 17 21 -1 l22 -19 -6 55
c-3 30 -9 69 -12 85 -6 27 -3 31 24 42 40 14 61 63 61 137 0 58 -10 75 -30 51
-7 -9 -29 -15 -54 -15 -23 0 -50 -6 -60 -13 -22 -16 -37 -80 -26 -116 6 -24 3
-33 -21 -55 -43 -41 -33 -81 11 -41 14 13 16 9 15 -43 -1 -32 -13 -93 -28
-140 -15 -46 -27 -95 -27 -109 0 -25 -1 -26 -57 -19 -32 4 -74 9 -94 12 l-36
6 -7 -73 c-4 -41 -14 -127 -23 -192 -9 -64 -14 -120 -11 -123 3 -3 115 2 249
10 133 9 245 14 247 11 3 -3 11 -98 18 -213 7 -114 15 -250 19 -300 l8 -92
198 0 199 0 0 34 0 33 153 7 c83 4 208 11 277 17 169 13 497 29 593 29 l77 0
0 -60 0 -60 181 0 c169 0 181 1 174 18 -4 9 -20 55 -36 102 -16 47 -45 125
-64 175 -27 71 -134 360 -160 434 -14 39 -12 -7 5 -114 11 -66 20 -123 20
-126 0 -12 -22 -16 -190 -38 -91 -12 -207 -30 -258 -38 -51 -9 -95 -13 -99
-10 -3 4 0 39 7 78 20 103 -7 135 -69 83 -28 -24 -35 -25 -56 -14 -28 15 -45
6 -45 -24 0 -23 44 -76 63 -76 12 0 80 -50 75 -55 -5 -5 -521 -86 -523 -83 -2
2 -26 174 -54 383 -29 209 -63 456 -77 549 -13 93 -23 170 -22 171 3 3 452 71
753 115 116 17 228 35 250 40 87 21 87 20 100 -88 5 -48 4 -53 -12 -50 -9 2
-20 14 -23 27 -4 18 -14 25 -35 28 l-30 4 23 -21 c28 -26 29 -43 1 -35 -13 4
-25 2 -29 -4 -5 -9 -14 -9 -35 1 -23 10 -29 10 -40 -5 -7 -10 -26 -17 -44 -17
-18 0 -34 -6 -37 -14 -4 -11 -13 -12 -35 -6 -16 5 -31 5 -34 0 -5 -7 -64 -4
-93 6 -8 2 -20 -2 -28 -10 -17 -18 -18 -26 -3 -26 7 0 18 -8 25 -17 17 -24
114 -27 114 -3 0 9 10 16 25 16 19 2 30 -6 40 -26 14 -28 45 -48 45 -29 0 5
-7 21 -16 34 -9 14 -14 26 -10 26 3 1 18 3 34 5 41 4 95 15 112 21 8 3 24 6
35 7 17 0 19 -5 17 -37 -2 -22 1 -37 7 -37 6 0 11 10 11 23 0 12 5 29 10 37
16 25 26 -3 33 -91 4 -43 13 -92 21 -108 8 -15 12 -31 9 -35 -9 -9 39 -99 65
-120 17 -13 20 -21 12 -31 -6 -7 -7 -16 -2 -19 5 -3 9 -22 10 -42 1 -28 -1
-35 -10 -26 -8 8 -15 7 -24 -6 -18 -23 -17 -42 2 -42 10 0 14 6 10 15 -3 8 -1
15 4 15 6 0 10 -4 10 -9 0 -14 44 -21 52 -8 6 9 8 9 8 0 0 -7 7 -10 15 -7 8 4
15 1 15 -5 0 -16 25 -14 39 3 9 11 19 12 41 5 20 -8 35 -7 50 1 13 7 20 8 16
2 -11 -19 28 -18 47 1 10 10 23 15 29 11 7 -4 8 -3 4 4 -3 6 2 16 13 21 14 8
20 8 23 -1 3 -8 12 -9 35 -1 23 8 34 8 43 0 10 -9 11 -9 6 1 -4 7 -2 12 6 13
7 1 26 3 43 5 16 2 35 -2 43 -8 10 -9 16 -8 23 3 7 11 9 11 9 -3 0 -20 15 -24
26 -6 5 7 3 8 -5 3 -9 -5 -9 -2 1 14 8 14 19 19 33 15 17 -4 17 -2 -5 17 -14
12 -25 25 -25 29 0 5 -3 12 -7 16 -5 4 -8 3 -8 -2 0 -13 -53 -10 -58 4 -2 6
-11 8 -20 5 -15 -6 -15 -5 -3 10 7 9 10 18 5 18 -5 1 -20 3 -33 4 -13 1 -28
10 -33 19 -5 9 -14 16 -21 16 -8 0 -8 -3 2 -9 9 -6 -1 -9 -28 -9 -36 -1 -41 2
-40 21 0 21 1 21 9 2 6 -13 9 -15 9 -5 1 10 11 15 33 14 19 -1 38 6 45 15 7 9
13 12 13 6 0 -5 5 -3 10 5 8 11 12 12 18 3 5 -8 13 -9 22 -3 12 8 11 10 -5 10
-17 0 -18 2 -5 11 13 8 12 9 -4 7 -10 -2 -21 2 -23 9 -3 7 3 10 14 7 10 -3 28
4 41 16 14 13 22 17 21 9 -1 -8 1 -22 6 -32 11 -26 -3 -34 -19 -11 -13 17 -14
17 -9 -9 3 -15 8 -25 11 -23 3 3 11 1 18 -5 10 -8 15 -8 19 3 3 8 19 15 35 15
26 0 30 -4 30 -28 0 -15 4 -30 9 -34 5 -3 53 11 106 31 53 20 99 34 102 31 3
-3 -2 -16 -11 -29 -9 -12 -16 -33 -16 -45 0 -13 -5 -23 -12 -23 -9 0 -9 -3 0
-12 9 -9 9 -15 -2 -27 -12 -14 -19 -41 -30 -121 -8 -54 -19 -90 -27 -90 -5 0
-9 -7 -9 -15 0 -20 -29 -77 -44 -88 -7 -4 -3 -9 11 -13 13 -4 21 -10 18 -14
-3 -4 2 -13 10 -20 8 -7 15 -24 15 -38 0 -24 -1 -24 -18 -9 -10 10 -26 17 -36
17 -26 0 -16 -39 16 -63 23 -17 32 -19 52 -9 13 6 27 20 30 30 5 16 13 19 39
16 18 -3 43 -5 57 -5 31 -1 52 -17 43 -33 -4 -6 1 -5 11 3 15 13 21 12 49 -4
18 -11 52 -20 77 -21 25 -1 53 -5 63 -9 15 -6 17 1 17 73 l0 79 -72 7 c-40 4
-101 10 -135 13 l-63 6 0 173 c0 156 25 509 49 705 6 41 7 77 3 80 -4 3 -142
-9 -307 -27 -165 -18 -346 -36 -401 -40 l-102 -7 -6 39 c-3 22 -12 113 -21
204 -9 91 -24 246 -35 345 -10 99 -22 212 -25 250 -8 98 -13 115 -31 115 -14
0 -14 3 -4 15 7 8 9 15 5 15 -4 0 -2 6 5 14 6 8 10 34 8 58 l-3 43 95 8 c119
9 646 56 760 67 47 5 113 11 148 15 35 3 69 7 75 8 7 1 13 -14 15 -35 4 -42
16 -49 32 -19 7 13 10 261 10 735 l0 716 -137 0 c-151 0 -555 18 -562 25 -2 3
-9 180 -14 395 -10 379 -9 391 9 405 26 20 36 18 29 -5 -3 -10 -1 -29 5 -41 9
-16 18 -19 37 -14 30 7 103 54 103 66 0 13 -5 11 -57 -21 -55 -35 -73 -38 -73
-10 0 13 7 20 18 20 28 0 119 34 102 37 -8 2 -37 -3 -63 -11 -61 -18 -60 2 1
24 54 20 67 35 22 26 -19 -4 -42 -9 -50 -10 -8 -1 -31 -11 -50 -23 -19 -12
-35 -21 -36 -20 -2 2 -12 79 -13 105 -1 19 -1331 18 -1331 -1z m1230 -107 c0
-85 47 -640 66 -784 14 -99 14 -120 3 -127 -8 -5 -95 -9 -194 -9 -99 0 -238
-3 -310 -6 -289 -13 -600 -20 -607 -15 -6 5 -26 358 -46 793 l-7 147 60 5 c33
3 211 13 395 22 399 19 622 30 633 33 4 0 7 -26 7 -59z m-1465 -289 c3 -5 1
-12 -5 -16 -5 -3 -10 1 -10 9 0 18 6 21 15 7z m205 -2 c0 -5 4 -8 9 -4 5 3 12
1 16 -5 4 -6 -4 -9 -19 -8 -24 2 -39 28 -16 28 6 0 10 -5 10 -11z m140 -274
c0 -14 -4 -25 -9 -25 -5 0 -7 -9 -4 -20 3 -11 1 -20 -5 -20 -5 0 -17 -11 -26
-25 -14 -21 -14 -30 -4 -65 13 -42 33 -53 41 -22 3 9 5 4 4 -13 -1 -21 -11
-35 -31 -48 -22 -14 -27 -23 -22 -43 3 -13 9 -36 12 -51 4 -16 10 -30 15 -33
12 -8 20 -54 12 -65 -5 -5 -17 -15 -28 -21 -12 -7 -21 -24 -23 -43 -3 -26 -6
-30 -17 -21 -22 18 -47 -16 -43 -59 4 -45 35 -54 67 -20 12 13 21 17 21 11 0
-7 7 -12 16 -12 12 0 15 6 11 22 -3 12 -1 30 4 40 9 16 7 20 -10 25 -11 3 -18
9 -15 14 9 14 33 10 54 -9 11 -10 36 -24 57 -31 20 -8 44 -23 53 -34 14 -17
21 -18 51 -9 19 6 67 14 108 17 41 4 78 8 82 11 13 7 19 -27 9 -47 -16 -28
-58 -35 -93 -15 -32 18 -43 15 -34 -8 3 -8 24 -20 46 -27 34 -10 44 -9 73 8
18 10 40 34 49 53 16 33 19 34 80 37 35 2 69 0 75 -5 10 -6 74 -315 74 -356 0
-19 -67 -33 -191 -41 -52 -3 -104 -8 -116 -11 -20 -4 -21 -2 -10 19 19 37 50
64 55 49 2 -6 10 -12 19 -12 10 0 12 6 8 20 -5 15 -2 20 10 20 9 0 19 -9 22
-20 8 -32 26 -24 20 9 -5 25 -2 30 18 35 34 9 32 30 -1 23 -23 -4 -25 -2 -20
19 5 17 2 24 -9 24 -10 0 -15 -10 -15 -31 0 -29 -2 -31 -27 -26 -17 3 -34 0
-43 -8 -14 -12 -16 -11 -15 8 0 30 -19 38 -23 10 -3 -17 -10 -23 -30 -23 -36
0 -55 -14 -50 -36 3 -14 12 -19 36 -18 20 1 32 -3 32 -11 0 -17 -27 -38 -39
-31 -5 4 -14 -1 -19 -11 -8 -14 -39 -19 -187 -29 -98 -7 -257 -16 -355 -20
-164 -6 -177 -5 -184 11 -3 10 -24 158 -46 329 -22 171 -49 378 -60 460 -11
82 -18 151 -16 153 2 2 59 11 127 19 68 8 187 23 264 33 195 26 195 26 195 -4z
m-1129 -48 c-1 -12 -15 -9 -19 4 -3 6 1 10 8 8 6 -3 11 -8 11 -12z m-61 -91
c8 -11 18 -12 35 -6 15 6 27 6 30 -1 4 -5 11 -7 16 -4 5 4 9 4 9 1 0 -2 3 -12
6 -20 5 -12 2 -15 -12 -9 -13 5 -15 3 -8 -8 4 -8 9 -25 10 -39 1 -14 0 -17 -3
-7 -6 21 -22 22 -50 2 -20 -14 -22 -14 -25 7 -2 17 -10 23 -30 25 -34 2 -46
-13 -17 -22 12 -4 18 -12 15 -21 -3 -8 0 -14 7 -15 9 0 9 -2 -1 -6 -6 -2 -10
-9 -6 -14 7 -12 -7 -11 -25 0 -13 8 -13 12 0 27 13 16 12 17 -8 12 -20 -5 -22
-3 -16 20 5 21 3 24 -11 19 -12 -5 -16 -3 -14 5 3 7 11 13 19 13 17 0 33 14
42 38 8 21 21 22 37 3z m-473 -2 c-3 -3 -12 -4 -19 -1 -8 3 -5 6 6 6 11 1 17
-2 13 -5z m226 -11 c-20 -8 27 -63 53 -63 13 0 26 -4 29 -10 3 -5 -1 -10 -9
-10 -9 0 -16 -5 -16 -11 0 -5 -5 -7 -11 -4 -6 4 -8 9 -5 13 6 5 -24 31 -36 32
-5 0 -7 -5 -5 -12 1 -6 -6 -14 -15 -16 -12 -2 -18 3 -18 15 -1 17 -2 17 -15
-1 -21 -28 -18 -14 7 33 12 23 29 41 37 40 10 0 12 -2 4 -6z m442 -3 c-3 -5
-10 -10 -16 -10 -5 0 -9 5 -9 10 0 6 7 10 16 10 8 0 12 -4 9 -10z m-351 -35
c-4 -8 -9 -15 -13 -15 -4 0 -8 7 -8 15 0 8 6 15 13 15 8 0 11 -6 8 -15z m445
-18 c13 -6 25 -19 27 -27 1 -8 5 -22 8 -30 9 -23 -40 -43 -59 -23 -14 14 -20
7 -16 -19 2 -17 -31 -7 -36 11 -3 10 -14 23 -26 29 -22 10 -22 10 -2 17 37 14
46 26 34 41 -9 11 -6 14 17 14 16 0 40 -6 53 -13z m81 -20 c0 -13 -3 -27 -7
-31 -7 -7 -8 -12 -11 -75 -2 -28 -4 -31 -17 -21 -8 6 -23 9 -35 5 -11 -4 -20
-2 -20 4 0 6 9 11 20 11 13 0 18 5 14 15 -6 13 6 20 29 16 12 -2 8 24 -7 44
-17 24 -9 55 15 55 13 0 19 -7 19 -23z m-317 -14 c3 -5 -1 -14 -9 -21 -12 -11
-14 -9 -14 8 0 20 14 27 23 13z m-328 -13 c3 -5 -1 -10 -10 -10 -9 0 -13 5
-10 10 3 6 8 10 10 10 2 0 7 -4 10 -10z m196 -21 c9 -18 18 -21 57 -16 26 2
41 2 34 0 -10 -4 -10 -8 -1 -19 9 -11 8 -14 -7 -14 -11 0 -28 -7 -38 -15 -10
-8 -23 -12 -27 -9 -5 3 -9 -2 -9 -10 0 -9 -3 -16 -7 -17 -5 0 -16 -2 -26 -4
-9 -2 -24 3 -32 12 -8 8 -15 11 -15 7 0 -4 -3 -5 -6 -1 -3 3 3 14 14 25 15 15
23 17 38 9 17 -10 18 -9 4 8 -11 14 -12 19 -3 22 9 3 10 10 3 24 -7 12 -7 19
-1 19 6 0 15 -10 22 -21z m1262 -15 c-4 -12 -8 -13 -14 -3 -9 15 -2 32 11 24
5 -3 6 -13 3 -21z m-1633 -48 c0 -3 -4 -8 -10 -11 -5 -3 -10 -1 -10 4 0 6 5
11 10 11 6 0 10 -2 10 -4z m496 -33 c-2 -3 -13 0 -24 6 -11 6 -22 7 -26 4 -3
-3 -6 -2 -6 4 0 19 13 22 36 6 14 -9 23 -18 20 -20z m69 18 c-3 -6 -11 -11
-16 -11 -5 0 -4 6 3 14 14 16 24 13 13 -3z m225 -45 c0 -25 -25 -8 -26 19 -2
21 0 22 12 10 8 -7 14 -21 14 -29z m-742 23 c-2 -6 -8 -10 -13 -10 -5 0 -11 4
-13 10 -2 6 4 11 13 11 9 0 15 -5 13 -11z m122 -10 c0 -14 -17 -10 -23 5 -4
10 -1 13 9 9 7 -3 14 -9 14 -14z m265 -6 c3 -15 12 -31 18 -35 7 -5 1 -6 -13
-4 -14 3 -25 5 -25 6 0 1 -13 4 -28 6 -22 2 -26 0 -18 -10 11 -13 5 -26 -11
-26 -5 0 -7 15 -5 33 3 29 6 32 35 29 26 -3 31 0 26 12 -3 9 -2 16 4 16 5 0
13 -12 17 -27z m175 17 c13 -9 13 -10 0 -10 -11 -1 -10 -4 5 -16 17 -13 18
-16 5 -24 -23 -15 -32 -7 -36 28 -4 34 1 38 26 22z m-653 -25 c0 -8 -6 -15
-14 -15 -7 0 -13 7 -13 15 0 8 6 15 13 15 8 0 14 -7 14 -15z m-172 -5 c-3 -5
-12 -10 -18 -10 -7 0 -6 4 3 10 19 12 23 12 15 0z m770 -9 c3 -5 1 -12 -4 -15
-5 -3 -11 1 -15 9 -6 16 9 21 19 6z m225 -22 c0 -5 -4 -9 -8 -9 -5 0 -9 7 -9
15 0 8 4 12 9 9 4 -3 8 -9 8 -15z m-452 -9 c15 0 15 -2 2 -10 -15 -9 -30 4
-29 25 0 6 3 4 6 -2 2 -7 12 -13 21 -13z m-168 -85 c0 -36 19 -71 46 -86 24
-12 32 -29 15 -29 -5 0 -11 7 -15 15 -4 11 -13 14 -30 9 -21 -5 -24 -2 -25 23
-2 70 -10 81 -29 38 -11 -24 -42 -35 -42 -15 0 6 4 10 10 10 5 0 6 8 3 17 -5
12 -2 15 9 11 8 -4 21 2 29 13 18 26 29 24 29 -6z m1392 -40 c0 -5 -5 -11 -11
-13 -6 -2 -11 4 -11 13 0 9 5 15 11 13 6 -2 11 -8 11 -13z m-1062 -51 c0 -2
-7 -4 -15 -4 -8 0 -15 4 -15 10 0 5 7 7 15 4 8 -4 15 -8 15 -10z m-49 -1 c-24
-10 -61 -46 -61 -60 0 -7 8 -13 18 -12 11 0 12 2 4 6 -10 4 -10 8 -1 19 13 16
33 19 24 4 -3 -5 -2 -26 4 -45 6 -23 6 -37 -1 -41 -6 -4 -6 -10 0 -16 13 -13
35 0 26 14 -4 7 -2 8 4 4 9 -5 9 -13 2 -27 -7 -13 -7 -19 0 -19 5 0 10 5 10
11 0 5 5 7 11 4 12 -8 8 27 -4 36 -5 3 -2 9 6 12 9 3 21 -1 28 -9 7 -8 8 -14
3 -13 -21 4 -26 -2 -14 -17 17 -19 24 -72 8 -56 -8 8 -16 5 -30 -11 -11 -13
-17 -16 -16 -7 2 8 -4 15 -12 16 -8 0 -20 2 -26 2 -6 1 -16 12 -23 25 l-12 22
5 -23 c3 -15 -3 -27 -17 -37 -20 -14 -23 -14 -34 1 -7 9 -14 21 -15 26 -2 6
-19 4 -40 -5 -20 -8 -39 -12 -43 -9 -4 4 -11 8 -16 8 -5 1 -11 2 -14 3 -3 0 0
11 6 23 l12 22 19 -24 c10 -12 22 -20 26 -16 4 4 -2 14 -13 22 -65 47 -62 45
-36 38 16 -4 21 -3 17 5 -4 6 -1 11 6 12 10 0 10 2 1 6 -7 2 -13 9 -13 14 0 6
5 7 10 4 13 -8 13 6 -1 25 -8 11 -12 12 -16 3 -7 -19 -19 -16 -30 10 -9 20 -8
22 16 22 27 -1 77 -29 97 -54 9 -12 18 -5 50 37 29 40 44 52 64 51 14 0 19 -3
11 -6z m-306 -23 c3 -5 11 -10 16 -10 6 0 7 5 3 12 -4 6 -3 8 4 5 5 -4 8 -16
5 -27 -3 -13 0 -20 9 -20 7 0 24 -7 36 -16 20 -14 21 -17 6 -31 -10 -10 -12
-19 -5 -26 6 -6 5 -15 -5 -25 -11 -11 -18 -12 -27 -3 -8 8 -8 11 2 11 7 0 9 5
6 10 -5 8 -11 8 -20 0 -9 -8 -14 -6 -19 5 -3 8 0 15 6 15 7 0 7 4 -1 13 -6 8
-8 17 -5 20 3 3 2 12 -2 19 -5 7 -9 19 -10 26 -3 18 -14 29 -14 14 0 -6 -7 -9
-15 -6 -8 4 -15 1 -15 -5 0 -6 -4 -11 -10 -11 -18 0 -10 17 13 28 29 14 35 14
42 2z m332 -62 c-3 -8 -6 -5 -6 6 -1 11 2 17 5 13 3 -3 4 -12 1 -19z m-337
-52 c0 -8 -7 -19 -15 -26 -10 -9 -15 -9 -15 -1 0 6 5 11 11 11 6 0 9 9 6 20
-3 11 -1 18 4 14 5 -3 9 -11 9 -18z m-497 -43 c4 -3 -1 -12 -11 -19 -14 -10
-15 -15 -4 -25 14 -15 16 -33 3 -24 -5 3 -12 1 -15 -4 -4 -5 5 -8 19 -6 28 3
36 -22 10 -31 -24 -10 -17 -22 10 -19 18 2 25 -2 26 -13 0 -11 2 -12 6 -4 2 7
14 17 26 23 20 10 19 9 -3 -12 -13 -13 -31 -24 -40 -24 -8 0 -14 -7 -12 -16 1
-12 -7 -15 -35 -14 -21 0 -47 6 -58 12 -20 12 -19 12 3 13 15 0 22 6 22 20 0
11 3 20 8 20 4 0 8 17 8 38 0 68 17 106 37 85z m925 -32 c-7 -12 -16 -21 -21
-21 -8 0 0 17 18 36 16 18 18 8 3 -15z m72 9 c0 -5 -4 -10 -10 -10 -5 0 -10 5
-10 10 0 6 5 10 10 10 6 0 10 -4 10 -10z m83 -31 c-6 -6 -19 -6 -34 0 l-24 10
28 0 c15 1 27 7 28 14 0 9 2 8 6 -1 3 -8 1 -18 -4 -23z m-402 -8 c-7 -5 -10
-14 -7 -20 9 -14 -16 -10 -26 4 -12 16 -9 25 7 25 8 0 15 5 15 12 0 9 3 9 12
0 10 -10 10 -15 -1 -21z m313 7 c-3 -5 -12 -4 -20 3 -19 16 -18 18 6 12 11 -3
17 -9 14 -15z m1316 -12 c0 -3 -4 -8 -10 -11 -5 -3 -10 -1 -10 4 0 6 5 11 10
11 6 0 10 -2 10 -4z m-1336 -37 c-8 -13 -24 -1 -24 18 0 13 3 13 15 3 8 -7 12
-16 9 -21z m-820 -5 c9 -3 16 -10 16 -15 0 -4 -7 -6 -15 -3 -8 4 -15 1 -15 -5
0 -6 6 -11 13 -11 6 0 4 -5 -6 -11 -24 -14 -40 -7 -42 19 -1 11 2 19 7 16 4
-3 8 0 8 5 0 12 11 14 34 5z m556 -39 c0 -8 11 -17 24 -21 14 -3 27 -12 30
-21 4 -9 13 -12 26 -8 12 4 20 2 20 -5 0 -6 5 -8 10 -5 6 3 10 3 10 -2 0 -4 3
-19 6 -33 6 -24 6 -24 -8 -6 -13 17 -15 17 -21 2 -4 -9 -2 -16 3 -16 6 0 10
-7 10 -15 0 -17 -23 -19 -51 -5 -14 8 -19 8 -17 -2 3 -14 -33 -20 -76 -11 -28
5 -29 6 -11 19 19 14 15 18 -17 15 -9 -1 -19 3 -22 8 -4 6 -13 8 -21 4 -9 -3
-15 1 -15 10 0 8 10 18 23 22 l22 8 -24 4 c-13 3 -32 12 -41 21 -17 16 -15 17
31 17 27 0 49 -3 49 -7 0 -5 -10 -8 -22 -8 -20 -1 -21 -2 -6 -10 10 -6 15 -20
13 -35 -3 -27 9 -34 19 -10 3 8 17 20 31 25 25 10 26 30 2 30 -7 0 -6 -4 3
-10 13 -8 12 -10 -2 -10 -22 0 -23 9 -3 36 8 12 11 24 8 28 -3 3 -1 6 5 6 7 0
12 -7 12 -15z m-880 -25 c-20 -13 -33 -13 -25 0 3 6 14 10 23 10 15 0 15 -2 2
-10z m256 -1 c3 -6 15 -9 25 -6 14 4 19 0 19 -14 0 -17 -3 -18 -22 -8 -12 7
-36 12 -53 12 -16 0 -22 2 -12 4 9 3 17 9 17 14 0 12 17 11 26 -2z m209 -9 c3
-5 2 -10 -4 -10 -5 0 -13 5 -16 10 -3 6 -2 10 4 10 5 0 13 -4 16 -10z m285
-44 c0 -2 -7 -7 -16 -10 -8 -3 -12 -2 -9 4 6 10 25 14 25 6z m-590 -31 c8 0
42 -5 75 -10 33 -5 63 -8 68 -7 18 5 5 -24 -15 -33 -13 -6 -22 -18 -22 -28 1
-9 -2 -17 -7 -17 -5 0 -9 7 -9 15 0 8 -4 15 -10 15 -5 0 -7 7 -3 16 5 14 1 16
-21 12 -17 -3 -29 0 -34 9 -7 12 -30 18 -85 22 -15 1 -16 3 -5 15 10 10 18 11
33 3 10 -5 26 -11 35 -12z m363 18 c-7 -2 -19 -2 -25 0 -7 3 -2 5 12 5 14 0
19 -2 13 -5z m911 -41 c36 -14 37 -16 20 -29 -22 -16 -35 -17 -31 -2 1 6 -15
17 -36 25 -36 13 -39 12 -59 -11 -19 -22 -22 -23 -33 -8 -7 10 -10 23 -8 31 4
10 -1 11 -22 6 -21 -5 -26 -4 -20 5 10 16 134 5 189 -17z m-641 4 c4 -10 1
-13 -8 -9 -8 3 -12 9 -9 14 7 12 11 11 17 -5z m1775 -8 c4 -23 -36 -25 -44 -3
-4 10 -13 13 -24 10 -10 -3 -21 -1 -25 5 -5 8 8 10 41 8 37 -2 50 -7 52 -20z
m-1451 -10 c-3 -8 -6 -5 -6 6 -1 11 2 17 5 13 3 -3 4 -12 1 -19z m1197 1 c-3
-5 -11 -9 -17 -9 -7 0 -18 -13 -25 -30 -13 -29 -35 -39 -47 -21 -8 14 47 66
72 67 13 1 20 -2 17 -7z m-1097 -21 c-3 -8 -6 -5 -6 6 -1 11 2 17 5 13 3 -3 4
-12 1 -19z m-632 2 c3 -5 -3 -10 -14 -10 -11 0 -23 5 -26 10 -3 6 3 10 14 10
11 0 23 -4 26 -10z m910 -20 c0 -7 -5 -15 -10 -17 -6 -2 -11 6 -11 17 0 11 5
19 11 17 5 -2 10 -10 10 -17z m-1275 0 c0 -5 -4 -10 -10 -10 -5 0 -10 5 -10
10 0 6 5 10 10 10 6 0 10 -4 10 -10z m3131 -43 c-8 -8 -16 -6 -29 7 -16 17
-16 18 6 11 17 -5 22 -2 23 12 1 17 2 17 6 -1 3 -10 0 -23 -6 -29z m64 -7 c3
-5 1 -10 -4 -10 -6 0 -11 5 -11 10 0 6 2 10 4 10 3 0 8 -4 11 -10z m-644 -57
c-9 -16 -10 -14 -11 12 0 21 3 26 11 18 8 -8 8 -16 0 -30z m147 21 c34 -10 26
-22 -18 -26 -45 -4 -66 4 -56 21 8 12 38 14 74 5z m-13 -84 c3 -5 1 -10 -4
-10 -6 0 -11 5 -11 10 0 6 2 10 4 10 3 0 8 -4 11 -10z m1042 -82 c-3 -8 -6 -5
-6 6 -1 11 2 17 5 13 3 -3 4 -12 1 -19z m103 -78 c0 -5 -2 -10 -4 -10 -3 0 -8
5 -11 10 -3 6 -1 10 4 10 6 0 11 -4 11 -10z m-1176 -77 c3 -21 6 -81 6 -134 0
-53 3 -123 6 -156 6 -56 8 -59 30 -55 18 3 23 0 21 -17 -1 -20 -27 -31 -27
-11 0 6 -4 10 -10 10 -13 0 -13 -50 0 -70 7 -11 10 -11 10 -2 0 7 5 10 10 7
16 -10 12 -38 -4 -32 -8 3 -17 -2 -21 -11 -3 -9 -1 -146 5 -305 7 -159 10
-290 8 -292 -6 -6 -1098 -28 -1104 -22 -6 6 -19 413 -28 853 l-4 241 141 7
c78 3 300 9 492 12 193 4 351 7 353 9 1 1 26 3 56 4 l53 1 7 -37z m73 -259
c-3 -3 -12 -4 -19 -1 -8 3 -5 6 6 6 11 1 17 -2 13 -5z m-2473 -99 c-4 -8 -11
-15 -16 -15 -6 0 -5 6 2 15 7 8 14 15 16 15 2 0 1 -7 -2 -15z m2489 -75 c-3
-11 -9 -17 -14 -15 -10 7 -1 35 11 35 5 0 6 -9 3 -20z m27 -10 c0 -5 -2 -10
-4 -10 -3 0 -8 5 -11 10 -3 6 -1 10 4 10 6 0 11 -4 11 -10z m610 -1095 c0 -78
-3 -95 -15 -95 -8 0 -15 -6 -15 -14 0 -7 -6 -19 -14 -25 -12 -10 -15 -6 -21
19 -4 16 -13 30 -20 30 -7 0 -16 8 -20 18 -6 15 -8 14 -16 -6 -5 -13 -7 -28
-4 -32 6 -10 -36 0 -52 13 -7 5 -13 6 -13 3 0 -4 -7 0 -16 8 -22 22 -40 20
-49 -6 -6 -20 -8 -21 -12 -5 -3 10 -16 22 -29 28 -16 5 -22 13 -18 21 6 9 9 9
12 0 2 -7 7 -10 11 -8 4 3 18 7 32 10 32 6 77 25 62 25 -7 1 -10 8 -6 18 4 11
3 14 -5 9 -7 -4 -12 -2 -12 3 0 6 5 11 11 11 5 0 7 5 4 10 -3 6 -1 10 5 10 6
0 15 -11 20 -25 7 -18 14 -23 26 -18 16 6 16 7 -1 13 -13 5 -15 9 -7 14 7 4
17 4 22 1 6 -3 10 -1 10 4 0 6 7 11 16 11 9 0 12 5 8 13 -5 9 -4 9 6 0 10 -9
16 -8 27 3 8 8 23 14 33 14 10 0 22 5 25 10 13 21 15 8 15 -85z m-2366 70 c4
-13 2 -13 -14 -5 -14 7 -21 7 -27 -4 -4 -7 -18 -17 -30 -20 -18 -6 -22 -4 -17
8 3 8 12 12 20 9 7 -3 17 2 20 11 8 20 40 21 48 1z m1962 -124 c22 4 33 -2 28
-15 -3 -8 -13 -13 -22 -11 -9 2 -20 4 -23 4 -4 1 -9 10 -12 22 -4 16 -3 18 8
9 7 -6 17 -10 21 -9z m-238 -4 c6 0 12 -4 12 -9 0 -4 9 -3 20 4 15 10 22 10
32 0 9 -9 8 -12 -5 -12 -9 0 -26 -9 -36 -19 -16 -16 -17 -20 -5 -25 8 -3 14
-16 14 -30 0 -23 3 -24 48 -23 31 1 46 -2 45 -9 -3 -13 34 -7 43 7 3 5 10 9
16 9 7 0 7 -5 -1 -14 -9 -11 -6 -15 14 -20 25 -6 25 -7 7 -26 -11 -12 -19 -34
-20 -51 -1 -26 5 -33 29 -42 16 -6 29 -17 29 -23 0 -6 7 -17 15 -24 13 -11 15
-8 15 13 0 14 5 29 10 32 6 4 8 10 5 15 -8 13 76 3 89 -11 8 -8 6 -10 -11 -5
-22 7 -41 -8 -24 -19 11 -6 4 -35 -9 -35 -4 0 -7 8 -6 17 0 10 -7 18 -19 20
-15 1 -16 1 -2 -3 19 -6 22 -20 6 -29 -6 -4 -8 -14 -4 -24 5 -13 4 -14 -6 -3
-7 6 -21 12 -30 12 -10 0 -31 8 -47 17 -25 14 -31 15 -44 3 -8 -8 -13 -24 -10
-35 5 -18 3 -18 -16 3 -13 14 -26 21 -33 16 -9 -5 -10 -2 -6 9 3 9 1 19 -5 23
-7 4 -8 3 -4 -4 4 -7 3 -12 -2 -12 -17 0 -22 13 -10 29 7 9 0 5 -15 -8 -15
-14 -30 -21 -34 -18 -3 4 -1 7 5 7 7 0 12 7 12 15 0 8 11 17 25 21 20 5 23 10
18 35 -4 23 -2 29 12 29 13 0 15 -3 7 -12 -7 -9 -6 -17 3 -25 18 -16 35 -1 28
25 -6 26 -34 29 -69 6 -22 -15 -24 -15 -18 -1 10 27 -6 41 -23 20 -8 -10 -12
-12 -8 -5 3 6 2 12 -4 12 -6 0 -8 7 -5 15 4 9 0 15 -8 15 -16 0 -49 36 -41 44
4 3 -3 6 -14 6 -25 0 -33 18 -33 72 0 39 1 40 28 33 15 -4 33 -8 40 -8z m307
3 c-3 -5 -10 -10 -16 -10 -5 0 -9 5 -9 10 0 6 7 10 16 10 8 0 12 -4 9 -10z m0
-41 c-7 -10 -35 -1 -35 11 0 5 9 6 20 3 11 -3 17 -9 15 -14z m-81 -24 c-4 -8
-12 -15 -18 -15 -7 0 -13 7 -13 15 0 8 8 15 18 15 12 0 16 -5 13 -15z m32 -17
c4 -7 3 -8 -4 -4 -16 10 -16 -29 1 -41 6 -5 29 -9 50 -8 27 1 37 -2 38 -14 1
-13 2 -13 6 2 7 25 33 21 33 -5 0 -19 -2 -20 -10 -8 -8 13 -10 13 -10 -2 0
-14 -7 -16 -37 -11 -21 3 -41 11 -44 16 -4 5 -14 7 -22 4 -10 -4 -17 2 -21 16
-5 18 -8 20 -16 7 -14 -21 -13 3 2 35 12 27 23 31 34 13z m354 -54 c0 -8 -4
-12 -10 -9 -5 3 -10 10 -10 16 0 5 5 9 10 9 6 0 10 -7 10 -16z m-139 -16 c9
-19 9 -21 -2 -10 -18 17 -32 15 -25 -3 6 -17 -9 -21 -19 -5 -4 6 -11 8 -16 5
-5 -4 -9 1 -9 10 0 11 5 15 15 11 8 -3 15 -1 15 4 0 19 29 10 41 -12z m-145
-44 c-6 -15 -4 -15 10 -3 15 12 17 12 12 0 -2 -8 -16 -18 -31 -22 -26 -7 -26
-7 -10 17 18 28 28 32 19 8z m87 -62 c-9 -6 -7 -11 7 -19 14 -10 19 -9 24 2 2
7 0 16 -7 19 -7 2 -7 5 -2 5 6 0 17 -4 25 -9 13 -9 13 -12 -2 -24 -10 -7 -14
-17 -10 -21 4 -4 -5 0 -20 10 -26 16 -29 16 -44 0 -15 -14 -15 -18 -3 -26 12
-7 11 -9 -2 -9 -9 0 -18 3 -22 6 -8 8 44 74 58 74 6 0 5 -4 -2 -8z m87 -6 c0
-3 -4 -8 -10 -11 -5 -3 -10 -1 -10 4 0 6 5 11 10 11 6 0 10 -2 10 -4z m-80
-40 c0 -3 -4 -8 -10 -11 -5 -3 -10 -1 -10 4 0 6 5 11 10 11 6 0 10 -2 10 -4z
m-220 -66 c0 -5 -2 -10 -4 -10 -3 0 -8 5 -11 10 -3 6 -1 10 4 10 6 0 11 -4 11
-10z m-720 -385 c0 -7 -5 -37 -11 -65 -10 -48 -21 -61 -34 -40 -4 6 -24 19
-45 30 -21 11 -42 29 -45 41 -10 30 -2 32 30 7 24 -19 28 -20 36 -5 24 42 69
63 69 32z"/>
<path d="M3257 4926 c-4 -10 -1 -13 7 -10 17 6 33 -15 19 -25 -15 -10 -21 -35
-12 -56 7 -20 8 -20 8 1 1 28 11 36 28 23 8 -7 13 -8 13 -1 0 5 -7 12 -15 16
-8 3 -12 12 -9 21 6 15 -11 45 -26 45 -4 0 -10 -7 -13 -14z"/>
<path d="M3413 4860 c0 -36 2 -50 4 -32 2 17 2 47 0 65 -2 17 -4 3 -4 -33z"/>
<path d="M3811 4905 c0 -19 26 -45 45 -44 14 0 15 2 4 6 -8 3 -23 15 -32 27
-10 11 -18 17 -17 11z"/>
<path d="M3615 4873 c5 -21 4 -24 -4 -13 -14 20 -15 -4 -1 -31 11 -20 40 -26
40 -8 0 5 -4 7 -10 4 -6 -4 -10 8 -10 29 0 19 -5 38 -10 41 -7 4 -9 -3 -5 -22z"/>
<path d="M3567 4883 c-11 -10 -8 -43 3 -43 5 0 9 11 8 25 -3 28 -2 27 -11 18z"/>
<path d="M3347 4860 c3 -11 7 -20 9 -20 2 0 4 9 4 20 0 11 -4 20 -9 20 -5 0
-7 -9 -4 -20z"/>
<path d="M3480 4846 c0 -36 18 -51 41 -34 11 8 10 9 -3 4 -14 -4 -18 1 -19 22
-1 15 -1 30 0 35 0 4 -3 7 -9 7 -5 0 -10 -15 -10 -34z"/>
<path d="M3543 4835 c6 -19 14 -35 18 -35 9 0 -9 58 -21 65 -4 3 -3 -11 3 -30z"/>
<path d="M3452 4840 c0 -14 2 -19 5 -12 2 6 2 18 0 25 -3 6 -5 1 -5 -13z"/>
<path d="M3330 4821 c0 -6 4 -13 10 -16 6 -3 7 1 4 9 -7 18 -14 21 -14 7z"/>
<path d="M4126 4802 c-3 -6 -1 -14 5 -17 15 -10 25 3 12 16 -7 7 -13 7 -17 1z"/>
<path d="M4096 4764 c-16 -42 10 -84 52 -84 20 0 62 43 62 64 0 6 -5 4 -10 -4
-8 -12 -13 -13 -30 -2 -17 10 -20 10 -20 -3 0 -8 7 -15 15 -15 8 0 15 -4 15
-9 0 -12 -32 -24 -39 -14 -3 4 -13 8 -21 8 -11 0 -15 10 -14 38 1 41 -1 45
-10 21z"/>
<path d="M3503 4710 c-6 -30 -6 -30 -26 -13 -20 17 -20 16 1 -13 12 -18 26
-49 31 -70 7 -32 8 -24 7 43 -1 46 -2 83 -4 83 -1 0 -5 -14 -9 -30z"/>
<path d="M3831 4664 c0 -11 3 -14 6 -6 3 7 2 16 -1 19 -3 4 -6 -2 -5 -13z"/>
<path d="M3541 4654 c0 -11 3 -14 6 -6 3 7 2 16 -1 19 -3 4 -6 -2 -5 -13z"/>
<path d="M3780 4651 c0 -25 6 -27 13 -6 4 8 2 17 -3 20 -6 4 -10 -3 -10 -14z"/>
<path d="M3920 4640 c0 -19 3 -21 12 -12 9 9 9 15 0 24 -9 9 -12 7 -12 -12z"/>
<path d="M3660 4643 c0 -15 15 -28 35 -31 18 -4 18 -2 -4 17 -26 23 -31 25
-31 14z"/>
<path d="M3620 4621 c0 -8 -7 -11 -17 -6 -15 5 -16 4 -5 -6 9 -10 15 -10 24
-1 6 6 9 15 5 19 -4 3 -7 1 -7 -6z"/>
<path d="M3688 4483 c-3 -13 -2 -26 4 -29 14 -9 16 -2 8 26 -6 25 -6 25 -12 3z"/>
<path d="M3925 4480 c10 -11 25 -20 34 -19 14 0 14 1 1 6 -8 3 -19 12 -23 19
-4 8 -13 14 -19 14 -6 0 -3 -9 7 -20z"/>
<path d="M3440 4470 c0 -5 5 -10 10 -10 6 0 10 5 10 10 0 6 -4 10 -10 10 -5 0
-10 -4 -10 -10z"/>
<path d="M3485 4460 c-15 -17 -16 -20 -3 -20 9 0 19 7 22 16 10 25 1 27 -19 4z"/>
<path d="M3593 4465 c0 -8 4 -15 9 -15 4 0 8 7 8 15 0 8 -4 15 -8 15 -5 0 -9
-7 -9 -15z"/>
<path d="M3630 4471 c0 -6 4 -13 10 -16 6 -3 7 1 4 9 -7 18 -14 21 -14 7z"/>
<path d="M3995 4389 c-11 -17 4 -61 17 -53 9 6 9 9 0 12 -16 5 -15 39 1 45 9
4 9 6 0 6 -6 1 -15 -4 -18 -10z"/>
<path d="M3752 4338 l-2 -48 38 2 c36 1 36 1 5 5 -29 4 -32 7 -36 46 l-4 42
-1 -47z"/>
<path d="M3952 4363 c-1 -12 -6 -23 -12 -25 -6 -2 -6 -9 0 -18 13 -22 22 -6
17 32 -2 18 -5 23 -5 11z"/>
<path d="M3847 4363 c-4 -3 -7 -11 -7 -17 0 -6 5 -5 12 2 6 6 9 14 7 17 -3 3
-9 2 -12 -2z"/>
<path d="M3585 4260 c3 -5 8 -10 11 -10 2 0 4 5 4 10 0 6 -5 10 -11 10 -5 0
-7 -4 -4 -10z"/>
<path d="M4008 4223 c5 -21 7 -23 10 -9 2 10 0 22 -6 28 -6 6 -7 0 -4 -19z"/>
<path d="M3570 4231 c0 -6 5 -13 10 -16 6 -3 10 1 10 9 0 9 -4 16 -10 16 -5 0
-10 -4 -10 -9z"/>
<path d="M3810 4226 c0 -8 4 -17 9 -20 5 -4 7 3 4 14 -6 23 -13 26 -13 6z"/>
<path d="M3950 4236 c0 -2 7 -7 16 -10 8 -3 12 -2 9 4 -6 10 -25 14 -25 6z"/>
<path d="M3730 4215 c0 -8 5 -15 10 -15 6 0 10 7 10 15 0 8 -4 15 -10 15 -5 0
-10 -7 -10 -15z"/>
<path d="M3616 4195 c-19 -14 -18 -15 13 -15 29 0 32 2 21 15 -7 8 -13 15 -14
15 0 0 -10 -7 -20 -15z"/>
<path d="M3785 4200 c-3 -5 -1 -10 4 -10 6 0 11 5 11 10 0 6 -2 10 -4 10 -3 0
-8 -4 -11 -10z"/>
<path d="M4210 4155 c0 -9 7 -18 15 -22 23 -8 24 0 3 20 -15 14 -18 15 -18 2z"/>
<path d="M4060 4143 c0 -11 3 -14 8 -7 4 6 14 14 22 17 10 4 8 6 -7 6 -16 1
-23 -5 -23 -16z"/>
<path d="M4125 4150 c-3 -5 -2 -10 4 -10 5 0 13 5 16 10 3 6 2 10 -4 10 -5 0
-13 -4 -16 -10z"/>
<path d="M4160 4153 c0 -4 5 -15 10 -23 8 -13 10 -13 10 2 0 9 -4 20 -10 23
-5 3 -10 3 -10 -2z"/>
<path d="M3832 4125 c-6 -14 -8 -25 -3 -25 5 0 11 5 13 11 3 9 10 9 27 0 14
-8 33 -10 49 -5 15 4 30 7 33 6 4 -1 5 8 2 18 -7 26 -33 26 -33 0 0 -12 -7
-20 -16 -20 -11 0 -14 5 -10 16 5 12 2 15 -10 10 -9 -4 -22 -2 -29 4 -8 7 -15
3 -23 -15z"/>
<path d="M3776 4132 c-3 -5 1 -17 8 -27 12 -17 13 -17 11 3 -2 26 -11 37 -19
24z"/>
<path d="M3016 4382 c-5 -9 7 -106 19 -144 7 -21 31 -19 28 3 -4 40 -27 135
-33 142 -4 5 -10 4 -14 -1z"/>
<path d="M2960 4357 c0 -8 -7 -14 -16 -13 -9 0 -19 -5 -22 -13 -3 -10 1 -12
17 -8 23 6 27 -3 10 -20 -6 -6 -18 -9 -25 -6 -10 4 -14 -3 -14 -22 0 -23 -2
-25 -15 -15 -8 6 -19 9 -25 5 -5 -3 -10 1 -10 9 0 9 -7 16 -16 16 -19 0 -13
-37 13 -76 16 -25 43 -33 43 -13 0 8 5 7 15 -1 24 -20 35 0 26 43 -11 45 1 49
14 5 8 -27 15 -32 34 -30 14 1 27 5 29 7 9 8 -33 138 -46 143 -6 2 -12 -3 -12
-11z"/>
<path d="M2676 4305 c-27 -8 -53 -18 -59 -24 -17 -17 2 -27 23 -13 11 7 26 12
33 12 17 0 39 -88 24 -93 -6 -2 -7 -8 -3 -15 9 -15 97 17 104 37 5 14 -10 13
-49 -3 -12 -5 -18 3 -27 32 -16 52 -16 50 15 54 33 4 44 28 11 27 -12 0 -45
-7 -72 -14z"/>
<path d="M2964 4146 c-3 -8 -1 -31 5 -53 l10 -38 -20 28 c-23 30 -41 34 -59
12 -9 -11 -16 -12 -30 -2 -15 9 -23 8 -39 -7 -12 -11 -21 -26 -21 -34 0 -30
-14 -1 -19 40 -6 39 -31 67 -31 34 0 -10 -6 -13 -15 -10 -8 4 -15 1 -15 -5 0
-6 7 -11 15 -11 8 0 15 -7 15 -15 0 -8 -7 -15 -15 -15 -8 0 -15 -9 -15 -20 0
-15 -7 -20 -25 -20 -14 0 -25 5 -25 10 0 6 7 10 15 10 17 0 20 16 4 25 -13 8
-49 -23 -49 -42 0 -8 13 -19 29 -24 22 -8 28 -15 24 -30 -6 -23 9 -25 27 -4 8
10 21 13 38 8 21 -5 24 -3 19 11 -16 39 -17 49 -2 24 15 -27 45 -39 45 -18 0
6 8 5 20 -2 14 -9 27 -9 47 -2 25 9 28 14 25 49 -2 41 3 40 33 -10 7 -12 18
-14 42 -9 28 5 32 10 27 29 -4 18 -1 25 15 30 12 3 21 13 21 21 0 16 -26 19
-35 4 -12 -20 -25 -9 -25 20 0 32 -26 43 -36 16z m-74 -112 c0 -17 -26 -19
-36 -3 -7 12 15 31 28 23 4 -3 8 -12 8 -20z"/>
<path d="M2804 3896 c5 -20 3 -23 -20 -18 -21 4 -27 -1 -37 -27 -7 -18 -19
-31 -29 -31 -28 0 -31 19 -4 32 14 6 26 15 26 20 0 15 -37 8 -61 -11 -20 -16
-22 -23 -13 -38 6 -10 25 -19 43 -21 27 -3 46 -22 21 -22 -5 0 -10 -4 -10 -10
0 -14 37 -13 46 1 3 6 19 9 34 5 37 -7 41 0 22 35 -19 33 -38 38 -45 12 -4
-14 -5 -14 -6 3 -2 32 37 40 49 10 4 -12 14 -27 21 -33 17 -13 69 -5 69 11 0
6 5 4 10 -4 7 -12 13 -12 27 -4 26 16 23 40 -4 36 -29 -4 -29 11 -1 30 26 17
17 38 -16 38 -36 0 -52 -25 -39 -61 10 -26 10 -30 -5 -27 -12 3 -16 13 -15 31
1 21 -3 27 -18 27 -12 0 -19 7 -19 20 0 12 -7 20 -16 20 -12 0 -15 -6 -10 -24z"/>
<path d="M3653 3808 c-20 -9 -27 -24 -25 -48 0 -3 -15 -4 -34 -2 -39 5 -52
-14 -34 -47 13 -26 37 -27 63 -4 18 17 19 17 28 0 15 -26 32 -21 25 7 -4 18
-1 25 14 29 34 9 24 30 -11 23 -22 -4 -29 -2 -26 7 2 6 18 11 36 11 35 -2 41
10 12 26 -23 12 -20 12 -48 -2z m-49 -89 c-8 -14 -24 -10 -24 6 0 9 6 12 15 9
8 -4 12 -10 9 -15z"/>
<path d="M3405 3746 c6 -30 4 -34 -20 -40 -36 -9 -45 1 -11 13 38 15 34 35 -6
27 -18 -4 -46 -8 -62 -9 -22 -2 -30 -8 -33 -26 -4 -30 -21 -51 -39 -51 -20 0
-17 47 4 59 13 7 14 13 6 21 -16 16 -54 -21 -54 -51 0 -53 35 -73 76 -44 12 8
24 12 27 9 3 -3 19 2 36 12 17 10 34 14 38 10 4 -5 2 -11 -4 -13 -17 -6 -16
-23 0 -23 18 0 49 34 40 43 -3 4 -2 7 4 7 6 0 14 -7 17 -16 7 -19 26 -9 26 16
0 10 7 20 15 24 23 8 18 29 -5 23 -15 -4 -22 1 -26 19 -3 13 -13 24 -21 24
-10 0 -12 -8 -8 -34z m-90 -57 c-10 -15 -25 -10 -19 6 4 8 10 12 15 9 5 -3 7
-10 4 -15z"/>
<path d="M2943 3715 c-7 -8 -13 -25 -13 -39 0 -13 -6 -26 -12 -29 -9 -3 -4
-11 12 -25 32 -27 40 -27 40 0 0 17 3 19 12 10 19 -19 28 -14 28 15 l0 27 17
-24 c9 -14 17 -26 17 -26 1 -1 20 -5 42 -9 47 -7 74 11 73 48 l0 22 -16 -22
c-15 -23 -57 -31 -67 -14 -3 4 6 13 19 19 14 7 25 18 25 27 0 20 -53 20 -70 0
-10 -12 -16 -12 -26 -4 -8 6 -20 9 -28 6 -8 -3 -16 2 -19 14 -6 22 -17 24 -34
4z"/>
<path d="M2790 3688 c0 -7 4 -20 10 -28 5 -9 5 -19 -1 -26 -7 -8 -6 -14 1 -19
5 -3 10 -3 10 1 0 4 9 -1 20 -11 24 -22 36 -14 21 14 -8 13 -8 22 -1 26 14 9
2 25 -14 19 -8 -3 -16 4 -19 15 -6 23 -27 29 -27 9z"/>
<path d="M3690 3662 c0 -40 9 -62 26 -62 7 0 11 6 8 13 -3 8 -6 27 -7 42 -3
40 -27 45 -27 7z"/>
<path d="M2722 3658 c-28 -28 4 -94 41 -84 12 3 27 0 34 -6 23 -19 27 1 6 25
-12 12 -23 33 -25 47 -3 28 -35 39 -56 18z m25 -45 c-3 -10 -5 -4 -5 12 0 17
2 24 5 18 2 -7 2 -21 0 -30z"/>
<path d="M3377 3613 c-9 -8 -9 -66 -1 -87 12 -32 21 -15 19 35 -3 53 -7 64
-18 52z"/>
<path d="M3112 3576 c3 -16 0 -27 -9 -30 -21 -8 -23 -8 -23 9 0 22 -17 18 -23
-5 -4 -15 -14 -20 -36 -20 -19 0 -34 -6 -38 -16 -5 -13 -9 -12 -25 6 -15 16
-23 19 -31 11 -15 -15 -27 -14 -27 4 0 8 -4 15 -10 15 -9 0 -14 -23 -13 -57 1
-18 -16 -16 -23 2 -9 23 -24 18 -25 -7 -1 -21 -2 -21 -12 5 -6 15 -17 27 -24
27 -17 0 -16 -2 4 -45 16 -33 36 -45 47 -27 3 5 21 8 41 7 31 -1 36 3 44 30
l8 30 8 -27 c8 -31 25 -38 25 -10 0 11 3 13 8 5 4 -6 24 -11 45 -10 31 1 36 4
31 19 -7 24 13 23 26 -2 15 -29 33 -25 26 5 -5 18 -2 27 8 31 19 7 29 36 20
58 -10 25 -27 19 -22 -8z m-92 -76 c0 -5 -5 -10 -11 -10 -5 0 -7 5 -4 10 3 6
8 10 11 10 2 0 4 -4 4 -10z"/>
<path d="M3303 3577 c-22 -11 -23 -24 -7 -74 7 -25 21 -13 27 23 3 20 14 42
24 50 17 13 17 13 -2 12 -11 0 -30 -5 -42 -11z"/>
<path d="M3177 3562 c-20 -22 -22 -38 -4 -45 6 -3 -6 -6 -28 -6 -36 -1 -38 -2
-23 -17 13 -14 21 -14 52 -4 25 8 36 18 36 31 0 10 -5 19 -12 19 -9 0 -9 3 0
12 7 7 12 16 12 20 0 14 -16 9 -33 -10z"/>
<path d="M3707 3574 c-8 -8 1 -24 14 -24 5 0 9 7 9 15 0 15 -12 20 -23 9z"/>
<path d="M2220 4192 c0 -19 -4 -21 -27 -16 -16 4 -25 4 -21 0 10 -12 87 -16
93 -6 3 6 -1 10 -9 10 -8 0 -20 8 -25 18 -9 15 -10 15 -11 -6z"/>
<path d="M1930 4114 c0 -8 5 -12 10 -9 6 4 8 11 5 16 -9 14 -15 11 -15 -7z"/>
<path d="M1890 3660 c0 -5 5 -10 11 -10 5 0 7 5 4 10 -3 6 -8 10 -11 10 -2 0
-4 -4 -4 -10z"/>
<path d="M1881 3631 c-15 -10 -7 -31 12 -31 8 0 7 3 -2 9 -11 7 -10 11 5 20
11 6 15 10 9 11 -5 0 -16 -4 -24 -9z"/>
<path d="M1706 3715 c-3 -9 0 -15 9 -15 16 0 20 16 6 24 -5 3 -11 -1 -15 -9z"/>
<path d="M1120 3490 c0 -5 7 -10 16 -10 8 0 12 5 9 10 -3 6 -10 10 -16 10 -5
0 -9 -4 -9 -10z"/>
<path d="M1945 3400 c3 -5 8 -10 11 -10 2 0 4 5 4 10 0 6 -5 10 -11 10 -5 0
-7 -4 -4 -10z"/>
<path d="M3164 2801 c-18 -11 -35 -24 -39 -30 -4 -8 -15 -5 -32 9 -29 22 -73
26 -91 8 -7 -7 -12 -28 -12 -48 0 -31 9 -45 69 -104 l68 -68 45 64 c25 35 50
73 56 85 23 43 10 103 -22 103 -6 0 -25 -9 -42 -19z"/>
<path d="M3562 2810 c-22 -9 -23 -13 -20 -122 3 -106 4 -113 23 -110 79 11
109 19 113 31 3 10 -8 12 -49 10 l-54 -4 -3 37 -3 36 53 9 c67 10 64 29 -3 25
l-50 -3 3 33 c3 30 7 33 41 38 21 3 39 10 40 15 3 13 -62 17 -91 5z"/>
<path d="M2856 2689 c-3 -62 -4 -114 -2 -117 10 -9 147 13 144 23 -2 6 -29 9
-62 7 l-59 -3 6 64 c6 67 0 137 -13 137 -4 0 -10 -50 -14 -111z"/>
<path d="M3295 2780 c-10 -16 91 -200 111 -200 15 0 65 198 52 206 -14 9 -18
1 -34 -67 -22 -97 -22 -97 -52 -48 -15 24 -34 59 -41 77 -15 36 -27 47 -36 32z"/>
<path d="M3684 2447 c-3 -10 -3 -28 0 -42 9 -34 -5 -31 -29 5 -11 16 -28 30
-37 30 -14 0 -16 -8 -11 -57 6 -70 9 -83 22 -83 5 0 11 19 13 43 l3 42 25 -37
c40 -60 54 -51 45 30 -7 70 -20 98 -31 69z"/>
<path d="M3273 2443 c-24 -9 -13 -41 22 -63 39 -24 41 -47 6 -42 -15 1 -21 -3
-19 -10 3 -7 17 -14 31 -16 21 -3 30 3 39 24 13 28 8 35 -48 71 -17 11 -16 12
10 12 24 1 27 3 16 16 -12 15 -34 18 -57 8z"/>
<path d="M2920 2433 c0 -5 8 -37 18 -73 20 -70 44 -87 50 -35 l4 30 28 -35
c16 -19 31 -32 35 -29 3 4 8 34 11 68 4 49 2 61 -10 61 -10 0 -16 -13 -18 -37
l-4 -38 -17 38 c-20 42 -34 47 -47 15 -8 -22 -9 -21 -15 10 -4 17 -14 32 -21
32 -8 0 -14 -3 -14 -7z"/>
<path d="M3214 2398 c6 -37 5 -40 -10 -27 -9 7 -20 23 -25 36 -5 13 -16 23
-25 23 -14 0 -15 -7 -10 -37 3 -21 6 -53 6 -70 0 -23 5 -33 15 -33 13 0 15 8
10 38 l-6 37 29 -32 c28 -33 69 -46 59 -20 -3 8 -8 39 -12 70 -5 41 -12 57
-22 57 -13 0 -14 -8 -9 -42z"/>
<path d="M3558 2433 c-10 -17 7 -127 20 -131 10 -3 12 12 10 64 -2 40 -8 69
-15 71 -6 2 -13 0 -15 -4z"/>
<path d="M3089 2426 c-10 -10 7 -130 19 -134 17 -5 17 112 -1 127 -8 6 -16 9
-18 7z"/>
<path d="M3640 2086 c0 -13 3 -44 6 -70 7 -49 23 -58 64 -36 52 28 44 91 -15
115 -47 20 -55 19 -55 -9z m61 -16 c24 -14 25 -56 0 -69 -25 -14 -31 -5 -31
41 0 41 2 43 31 28z"/>
<path d="M2930 2086 c0 -8 10 -16 23 -18 20 -3 22 -9 22 -58 0 -42 4 -55 15
-55 11 0 16 14 18 55 2 30 8 58 14 61 21 13 -4 29 -48 29 -31 0 -44 -4 -44
-14z"/>
<path d="M3090 2071 c0 -35 -17 -42 -22 -9 -2 12 -9 23 -16 26 -10 3 -12 -11
-10 -59 2 -39 8 -64 16 -67 7 -2 12 6 12 22 0 16 6 26 15 26 10 0 15 -10 15
-31 0 -20 4 -29 13 -26 13 4 17 62 7 111 -8 41 -30 46 -30 7z"/>
<path d="M3153 2093 c-9 -3 -13 -27 -13 -69 l0 -64 29 0 c16 0 36 3 45 6 26
10 18 24 -14 24 -35 0 -41 17 -7 22 12 2 20 8 17 13 -3 6 -13 9 -22 8 -12 -2
-18 4 -18 17 0 16 7 20 37 20 22 0 33 4 28 9 -13 11 -66 20 -82 14z"/>
<path d="M3400 2081 c0 -10 3 -39 6 -65 l7 -46 43 0 c50 0 60 17 12 22 -42 4
-46 23 -8 36 39 14 40 33 0 26 -19 -4 -30 -2 -30 5 0 6 11 11 25 11 28 0 34
15 9 24 -33 13 -64 7 -64 -13z"/>
<path d="M3520 2035 c0 -51 3 -65 15 -65 10 0 15 10 15 33 l1 32 22 -27 c28
-35 52 -37 43 -5 -3 12 -6 39 -6 60 0 48 -27 52 -32 5 l-3 -33 -15 33 c-25 53
-40 41 -40 -33z"/>
<path d="M4430 1281 c0 -6 5 -13 10 -16 6 -3 10 1 10 9 0 9 -4 16 -10 16 -5 0
-10 -4 -10 -9z"/>
<path d="M4035 1160 c-3 -5 1 -10 10 -10 9 0 13 5 10 10 -3 6 -8 10 -10 10 -2
0 -7 -4 -10 -10z"/>
<path d="M4108 1143 c7 -3 16 -2 19 1 4 3 -2 6 -13 5 -11 0 -14 -3 -6 -6z"/>
<path d="M4080 1130 c0 -5 5 -10 11 -10 5 0 7 5 4 10 -3 6 -8 10 -11 10 -2 0
-4 -4 -4 -10z"/>
<path d="M4077 1020 c3 -11 12 -20 19 -20 11 0 10 5 -3 20 -10 11 -18 20 -19
20 -1 0 0 -9 3 -20z"/>
<path d="M2350 5090 c-15 -28 -4 -39 17 -17 13 12 14 20 6 28 -8 8 -14 5 -23
-11z"/>
<path d="M2830 5095 c0 -16 16 -20 24 -6 3 5 -1 11 -9 15 -9 3 -15 0 -15 -9z"/>
<path d="M2910 5100 c0 -5 4 -10 9 -10 6 0 13 5 16 10 3 6 -1 10 -9 10 -9 0
-16 -4 -16 -10z"/>
<path d="M4780 5075 c0 -18 -7 -26 -27 -31 -17 -5 -28 -3 -31 4 -6 20 -30 13
-52 -15 l-22 -28 -19 24 c-24 30 -37 20 -16 -12 9 -15 13 -34 10 -48 -6 -23
-6 -24 14 -6 16 14 26 16 47 8 31 -12 36 2 5 15 l-21 10 22 24 c14 17 23 21
26 13 3 -7 19 -13 35 -13 26 0 29 -4 29 -30 0 -16 5 -30 10 -30 6 0 10 16 10
35 0 28 5 38 23 44 30 12 37 6 37 -35 0 -42 19 -45 42 -5 9 16 25 34 37 40 19
11 20 9 15 -18 -5 -25 -2 -32 18 -42 19 -8 33 -7 63 5 28 12 41 13 51 5 19
-15 34 -2 34 29 0 21 -2 24 -10 12 -8 -12 -10 -11 -10 8 0 29 -6 28 -40 -8
-15 -16 -32 -30 -37 -30 -5 0 -8 14 -5 30 4 30 4 30 -41 30 -30 0 -53 -7 -71
-21 l-26 -20 0 21 c0 26 -19 34 -53 21 -25 -10 -27 -8 -27 14 0 14 -4 25 -10
25 -5 0 -10 -11 -10 -25z m220 -45 c0 -5 -5 -10 -11 -10 -5 0 -7 5 -4 10 3 6
8 10 11 10 2 0 4 -4 4 -10z"/>
<path d="M2722 5072 c-8 -6 -2 -9 18 -9 16 0 30 4 30 9 0 10 -31 10 -48 0z"/>
<path d="M2680 5017 c0 -23 28 -33 43 -17 9 10 9 11 -2 5 -9 -5 -19 -1 -28 10
-12 17 -13 17 -13 2z"/>
<path d="M2570 4998 c0 -9 5 -20 10 -23 13 -8 13 5 0 25 -8 13 -10 13 -10 -2z"/>
<path d="M439 4993 c-9 -2 -22 -15 -29 -28 -11 -20 -16 -22 -32 -14 -23 12
-58 3 -58 -16 0 -7 18 -29 40 -48 22 -19 40 -39 40 -45 0 -19 20 -24 34 -9 11
10 12 17 4 25 -7 7 -3 24 16 58 14 25 26 52 26 59 0 15 -18 23 -41 18z m-8
-65 c-24 -39 -28 -30 -5 13 8 17 18 28 21 25 3 -3 -4 -20 -16 -38z m-51 -9
c17 -31 7 -33 -20 -4 -19 20 -20 25 -7 25 9 0 21 -9 27 -21z"/>
<path d="M2495 4990 c3 -5 10 -10 16 -10 5 0 9 5 9 10 0 6 -7 10 -16 10 -8 0
-12 -4 -9 -10z"/>
<path d="M4880 4921 c-5 -11 -10 -29 -10 -40 0 -22 -27 -41 -59 -41 -37 0 -22
-19 17 -22 l37 -4 -37 -17 c-50 -23 -55 -22 -50 11 5 36 -22 63 -42 41 -22
-23 -27 -54 -12 -74 17 -24 76 -24 111 -1 23 15 25 15 25 0 0 -8 6 -14 13 -11
6 2 12 16 12 30 1 35 19 54 38 39 7 -6 23 -9 35 -5 19 5 22 1 22 -26 0 -17 5
-31 10 -31 6 0 10 14 10 30 0 24 6 33 26 40 34 13 45 5 37 -30 -4 -23 -2 -30
11 -30 12 0 16 10 16 38 0 21 5 43 11 49 6 6 8 16 4 22 -8 14 -28 3 -22 -13 3
-8 -8 -12 -35 -11 -41 0 -43 5 -22 59 10 26 -12 18 -31 -10 -15 -24 -69 -54
-96 -54 -11 0 -8 25 7 64 9 23 -13 20 -26 -3z m95 -61 c-3 -5 -12 -10 -18 -10
-7 0 -6 4 3 10 19 12 23 12 15 0z m-223 -52 c-7 -7 -12 -8 -12 -2 0 6 3 14 7
17 3 4 9 5 12 2 2 -3 -1 -11 -7 -17z"/>
<path d="M4593 4818 c11 -87 29 -89 96 -9 52 61 31 71 -23 11 -20 -22 -38 -40
-40 -40 -3 0 -8 20 -12 45 -9 64 -28 58 -21 -7z"/>
<path d="M375 4734 c-66 -7 -175 -17 -242 -22 -68 -5 -125 -11 -128 -14 -3 -3
-4 -119 -3 -258 l3 -253 33 129 c17 71 43 182 56 247 13 65 26 120 29 124 4 3
80 14 169 24 90 11 188 23 218 28 86 14 4 11 -135 -5z"/>
<path d="M4791 4701 c-12 -16 -21 -34 -21 -41 0 -6 -16 -18 -35 -26 -43 -18
-45 -29 -4 -20 30 6 30 5 24 -27 -4 -17 -8 -34 -9 -37 0 -3 4 -7 9 -10 6 -3
12 15 15 40 4 40 8 46 35 51 62 13 75 11 75 -15 0 -49 46 -40 52 10 4 36 23
34 26 -3 4 -41 17 -42 36 -4 8 15 29 34 46 41 16 7 30 16 30 21 0 15 -20 10
-55 -11 -27 -17 -34 -18 -44 -6 -15 18 -90 18 -118 0 -28 -18 -63 -18 -63 -1
0 21 33 47 59 47 12 0 19 4 16 10 -13 21 -54 10 -74 -19z m116 -83 c-3 -7 -5
-2 -5 12 0 14 2 19 5 13 2 -7 2 -19 0 -25z"/>
<path d="M354 4687 c3 -10 6 -25 6 -32 0 -20 39 -40 52 -27 6 6 5 12 -3 17 -8
6 -10 4 -4 -5 6 -10 4 -12 -9 -7 -10 4 -20 7 -22 7 -2 0 -4 8 -4 18 0 9 -5 24
-11 32 -9 12 -10 12 -5 -3z"/>
<path d="M613 4625 c-9 -25 4 -29 17 -6 7 15 7 21 0 21 -6 0 -13 -7 -17 -15z"/>
<path d="M624 4589 c-3 -6 -1 -16 5 -22 8 -8 11 -5 11 11 0 24 -5 28 -16 11z"/>
<path d="M700 4566 c0 -8 5 -18 10 -21 6 -3 10 3 10 14 0 12 -4 21 -10 21 -5
0 -10 -6 -10 -14z"/>
<path d="M786 4532 c4 -14 0 -22 -13 -25 -17 -4 -17 -5 0 -6 21 -1 34 26 19
41 -8 8 -9 5 -6 -10z"/>
<path d="M822 4507 c7 -16 17 -26 25 -23 7 3 13 1 13 -4 0 -6 5 -10 11 -10 8
0 8 4 -1 15 -6 8 -16 13 -20 12 -5 -1 -16 7 -24 18 -15 19 -16 19 -4 -8z"/>
<path d="M916 4503 c-9 -10 -7 -43 3 -43 5 0 7 10 3 22 -6 23 -5 23 22 4 16
-10 25 -13 22 -7 -10 16 -42 31 -50 24z"/>
<path d="M4926 4487 c-8 -28 -4 -142 5 -152 11 -10 92 21 105 41 12 17 11 23
-2 42 -20 28 -39 28 -69 -2 l-24 -24 -3 61 c-3 52 -5 58 -12 34z m94 -87 c0
-21 -44 -49 -56 -37 -10 10 24 57 41 57 8 0 15 -9 15 -20z"/>
<path d="M260 4479 c0 -18 -5 -20 -27 -16 -26 5 -26 4 -8 -9 29 -21 42 -17 47
16 3 17 1 30 -4 30 -4 0 -8 -10 -8 -21z"/>
<path d="M5050 4493 c0 -5 4 -15 10 -23 11 -18 25 -7 17 15 -6 15 -27 21 -27
8z"/>
<path d="M296 4464 c-13 -35 -6 -64 18 -76 14 -6 32 -8 40 -5 24 10 20 44 -6
50 -22 6 -22 5 -4 -8 19 -14 14 -35 -8 -35 -38 0 -45 73 -8 83 13 4 12 5 -4 6
-12 0 -25 -6 -28 -15z"/>
<path d="M4509 4455 c-19 -10 -28 -25 -33 -52 -9 -56 -7 -93 4 -93 6 0 10 9
10 19 0 22 18 30 68 32 24 1 29 3 15 6 -27 5 -28 9 -8 29 8 9 15 29 15 45 0
24 -4 29 -22 29 -13 -1 -35 -7 -49 -15z m61 -16 c0 -6 -14 -25 -32 -42 -28
-27 -33 -29 -36 -14 -5 25 25 67 48 67 11 0 20 -5 20 -11z"/>
<path d="M4705 4397 c6 -41 5 -45 -17 -50 -44 -12 -49 -9 -43 27 8 40 -11 59
-32 31 -35 -48 0 -92 63 -80 33 6 34 5 34 -25 0 -20 5 -30 15 -30 11 0 15 12
15 51 0 56 13 89 35 89 21 0 18 -20 -7 -47 -29 -31 -4 -30 27 1 22 22 24 22
28 5 7 -25 42 -24 67 1 20 20 29 66 10 55 -5 -3 -10 -13 -10 -20 0 -13 -29
-35 -46 -35 -3 0 -4 9 -1 21 5 17 2 20 -13 16 -11 -3 -21 1 -24 9 -7 19 -40
18 -56 -1 -16 -19 -30 -19 -30 -1 0 8 -5 18 -11 21 -7 5 -8 -7 -4 -38z"/>
<path d="M5067 4433 c-11 -10 -8 -83 3 -83 6 0 10 13 10 29 0 16 3 36 6 45 6
16 -7 22 -19 9z"/>
<path d="M120 4336 c0 -2 8 -10 18 -17 15 -13 16 -12 3 4 -13 16 -21 21 -21
13z"/>
<path d="M150 4296 c0 -2 8 -10 18 -17 15 -13 16 -12 3 4 -13 16 -21 21 -21
13z"/>
<path d="M251 4239 c-6 -18 -9 -34 -7 -36 2 -2 9 10 15 28 6 18 9 34 7 36 -2
2 -9 -10 -15 -28z"/>
<path d="M230 4176 c0 -8 4 -17 9 -20 5 -4 7 3 4 14 -6 23 -13 26 -13 6z"/>
<path d="M370 4156 c0 -2 11 -6 25 -8 13 -3 22 -1 19 3 -5 9 -44 13 -44 5z"/>
<path d="M462 3433 c-12 -26 -3 -125 11 -120 7 2 14 17 17 32 l5 29 12 -26 c9
-21 20 -27 50 -30 34 -3 38 -6 38 -31 0 -15 6 -31 13 -36 11 -6 10 -10 -4 -15
-10 -4 -20 -2 -24 4 -9 15 -34 -45 -26 -65 10 -26 26 -16 26 15 0 27 2 29 18
19 12 -8 17 -20 14 -34 -2 -13 1 -26 7 -29 6 -4 11 0 11 10 0 15 3 15 21 -5
29 -30 83 -26 87 7 2 13 -2 30 -8 38 -10 11 -9 14 4 14 9 0 16 7 16 16 0 14
-8 15 -54 10 -52 -7 -54 -6 -49 13 3 12 0 28 -7 36 -10 12 -10 15 3 15 42 0
26 93 -23 129 -28 20 -31 20 -37 5 -4 -10 -2 -19 5 -22 8 -2 7 -12 -4 -33 -22
-44 -52 -36 -73 20 -18 49 -35 61 -49 34z m178 -89 c0 -14 -21 -19 -33 -7 -9
9 13 34 24 27 5 -3 9 -12 9 -20z m53 -158 c9 -7 17 -16 17 -20 0 -11 -35 -7
-48 6 -27 27 -2 39 31 14z"/>
<path d="M680 3371 c0 -45 11 -56 65 -64 49 -8 75 12 75 59 0 44 -18 53 -22
12 -3 -38 -38 -55 -38 -19 0 27 -20 27 -27 1 -10 -37 -33 -15 -33 31 0 10 -4
19 -10 19 -5 0 -10 -17 -10 -39z"/>
<path d="M996 3215 c-5 -20 -11 -24 -34 -20 -29 6 -52 -8 -70 -42 -18 -34 -15
-41 26 -52 51 -15 62 -14 62 5 0 13 3 14 15 4 8 -6 31 -16 52 -20 34 -8 41 -6
67 18 25 23 27 24 17 5 -6 -12 -11 -24 -11 -26 0 -2 30 -4 68 -3 65 1 67 2 70
29 3 24 0 27 -29 27 -18 0 -41 -8 -52 -17 -17 -15 -20 -16 -15 -2 16 44 -53
45 -76 1 l-14 -26 -6 31 c-4 18 -14 37 -22 44 -8 6 -14 24 -14 40 0 36 -25 39
-34 4z m-49 -70 c-7 -16 -37 -21 -37 -5 0 10 32 31 39 25 2 -2 1 -11 -2 -20z
m98 -15 c3 -5 -1 -10 -9 -10 -8 0 -18 5 -21 10 -3 6 1 10 9 10 8 0 18 -4 21
-10z"/>
<path d="M1328 3129 c-10 -5 -18 -17 -18 -24 0 -18 16 -20 26 -4 4 7 21 9 45
5 22 -4 39 -2 39 3 0 21 -67 35 -92 20z"/>
<path d="M430 3087 c0 -13 -11 -45 -25 -72 -13 -27 -22 -52 -19 -56 2 -4 49
-7 105 -6 l100 1 6 28 c6 32 15 35 34 11 12 -14 12 -17 0 -21 -26 -9 -51 -41
-44 -58 6 -15 7 -15 18 -1 6 9 33 22 58 29 54 14 59 28 20 53 l-27 18 22 10
c12 6 22 17 22 25 0 11 -8 13 -37 7 -21 -4 -42 -7 -47 -8 -4 -1 -10 6 -11 16
-4 24 -11 31 -23 23 -6 -3 -8 -15 -5 -26 6 -21 2 -23 -57 -24 -26 -1 -37 -7
-45 -23 -9 -22 -33 -38 -42 -29 -3 2 3 18 11 35 21 39 21 91 1 91 -9 0 -15 -9
-15 -23z m149 -81 c-2 -2 -14 -9 -26 -15 -19 -10 -22 -9 -17 4 4 8 15 15 27
15 11 0 18 -2 16 -4z"/>
<path d="M1781 3049 c-7 -23 -15 -47 -18 -55 -3 -8 0 -14 6 -14 12 0 29 36 38
83 9 43 -12 32 -26 -14z"/>
<path d="M853 2989 c-27 -17 -33 -28 -33 -55 0 -44 15 -43 40 4 13 23 18 27
13 12 -8 -27 -6 -87 3 -101 11 -18 24 -9 24 17 0 14 11 42 25 62 l25 37 0 -33
c0 -61 66 -98 101 -56 9 11 14 10 28 -8 20 -24 38 -18 52 19 8 23 11 24 22 10
15 -20 49 -26 54 -9 3 6 -4 12 -14 13 -16 0 -16 1 2 9 29 11 48 37 41 55 -8
21 -42 19 -66 -5 -26 -26 -30 -25 -30 5 0 16 -6 25 -15 25 -10 0 -15 -10 -15
-32 0 -18 -5 -40 -10 -48 -7 -11 -10 -4 -10 28 0 40 -13 56 -23 30 -4 -10 -6
-10 -6 0 -2 22 -45 13 -67 -15 l-21 -27 5 32 c5 38 -20 54 -45 29 -14 -14 -17
-14 -32 4 -16 19 -16 19 -48 -2z m183 -83 c-18 -28 -36 -34 -36 -13 0 7 7 23
16 36 24 33 43 11 20 -23z"/>
<path d="M1965 2986 c-21 -32 -13 -60 15 -51 10 3 29 1 41 -5 17 -9 23 -9 29
0 6 9 9 9 12 -1 4 -12 9 -12 27 -1 19 11 21 10 21 -8 0 -33 19 -22 26 15 8 44
0 54 -29 36 -15 -10 -22 -10 -25 -2 -6 19 -52 13 -53 -6 -1 -10 -4 -5 -8 12
-8 38 -35 43 -56 11z m16 -19 c-10 -9 -11 -8 -5 6 3 10 9 15 12 12 3 -3 0 -11
-7 -18z"/>
<path d="M1802 2850 c-25 -24 -31 -65 -7 -56 9 3 15 0 15 -8 0 -24 -12 -46
-21 -40 -5 3 -9 -4 -9 -15 0 -44 36 -14 46 38 5 23 10 29 17 22 17 -17 25 -13
29 12 2 14 11 23 26 25 22 3 30 -12 12 -23 -5 -3 -10 -13 -10 -22 0 -11 6 -14
22 -10 14 4 26 0 34 -11 12 -15 13 -10 14 31 l0 47 -42 2 c-24 0 -53 0 -66 -1
-12 -1 -21 3 -20 10 5 20 -17 20 -40 -1z"/>
<path d="M460 2839 c-6 -11 -10 -39 -8 -62 l3 -42 -40 -5 c-29 -4 -41 -10 -43
-24 -4 -17 1 -18 47 -14 39 4 51 2 51 -8 0 -8 -4 -14 -10 -14 -5 0 -10 -7 -10
-15 0 -19 42 -37 51 -23 4 7 9 6 13 -1 10 -16 41 -14 56 4 9 11 17 12 30 5 11
-6 21 -7 23 -3 4 7 20 102 22 128 0 6 4 16 8 23 5 7 3 12 -7 12 -8 0 -20 -15
-26 -34 -11 -35 -11 -35 -31 -15 -11 11 -28 18 -37 15 -70 -21 -72 -20 -72 17
0 30 3 34 19 30 24 -6 36 13 21 32 -18 21 -47 18 -60 -6z m47 -151 c-3 -7 -5
-2 -5 12 0 14 2 19 5 13 2 -7 2 -19 0 -25z m49 -15 c-10 -26 -18 -8 -9 23 5
21 8 24 11 11 2 -10 1 -25 -2 -34z"/>
<path d="M2000 2842 c0 -10 -4 -22 -9 -27 -6 -6 -6 -24 -1 -45 7 -32 9 -33 15
-12 9 28 25 29 25 2 0 -24 27 -37 43 -21 8 8 5 11 -11 11 -26 0 -20 26 9 33
10 3 19 10 19 16 0 14 -33 14 -47 0 -18 -18 -33 -1 -23 25 9 24 5 36 -12 36
-4 0 -8 -8 -8 -18z"/>
<path d="M2121 2818 c-17 -57 -24 -128 -12 -128 6 0 11 12 11 28 0 15 5 34 10
42 7 12 11 8 16 -17 8 -40 26 -42 43 -7 13 29 6 48 -9 24 -15 -25 -41 18 -36
58 3 17 1 32 -4 32 -5 0 -13 -15 -19 -32z"/>
<path d="M2226 2784 c-9 -67 -8 -93 3 -74 14 24 24 120 13 120 -5 0 -12 -21
-16 -46z"/>
<path d="M700 2789 c0 -4 15 -13 33 -18 17 -5 26 -10 19 -10 -7 -1 -10 -5 -7
-11 3 -5 1 -10 -4 -10 -6 0 -11 5 -11 10 0 6 -7 10 -15 10 -8 0 -14 -3 -14 -7
1 -5 1 -15 0 -23 -1 -12 -4 -12 -12 3 -11 20 -39 23 -38 5 0 -7 6 -40 13 -73
13 -64 38 -85 51 -45 5 16 10 19 18 11 6 -6 20 -11 32 -12 17 -1 16 -2 -5 -9
l-25 -8 23 -7 c14 -5 21 -13 18 -21 -3 -8 -1 -14 4 -14 5 0 6 -8 3 -17 -6 -16
-5 -16 10 -4 10 8 20 11 24 7 3 -3 -12 -14 -35 -24 -46 -19 -59 -52 -19 -52
18 0 19 -2 7 -10 -8 -5 -11 -10 -7 -10 5 0 1 -7 -8 -16 -9 -9 -13 -24 -10 -35
5 -14 1 -19 -12 -19 -14 0 -15 2 -4 9 17 11 -3 25 -24 17 -8 -3 -19 3 -25 14
-6 11 -16 17 -24 14 -8 -3 -16 3 -19 15 -3 13 -13 21 -25 21 -13 0 -22 8 -25
23 -7 38 -9 -53 -8 -552 0 -376 3 -487 13 -499 16 -18 17 -275 4 -650 -6 -182
-12 -250 -20 -243 -14 11 -65 11 -72 0 -3 -5 -14 -4 -25 1 -11 6 -23 9 -28 6
-5 -3 -11 4 -14 16 -5 18 -8 19 -22 8 -21 -17 -31 -5 -14 17 7 10 9 15 5 11
-5 -4 -16 -2 -24 5 -13 9 -14 9 -8 0 4 -7 2 -13 -3 -13 -6 0 -11 -6 -11 -14 0
-8 -4 -17 -9 -20 -5 -3 -8 2 -7 12 0 9 -6 17 -14 17 -8 1 -25 6 -37 13 -19 11
-24 9 -33 -7 -15 -29 -12 -48 5 -25 14 18 14 18 9 -3 -6 -20 -12 -21 -74 -20
-58 2 -72 6 -91 26 l-22 23 24 -7 c23 -7 23 -6 4 8 -10 8 -24 13 -31 10 -6 -2
-29 6 -50 17 -27 16 -34 17 -25 6 9 -11 10 -16 2 -16 -8 0 -11 -56 -11 -191
l0 -191 22 5 c13 4 43 9 68 13 25 4 50 11 57 16 7 5 17 7 23 3 6 -4 17 -1 25
5 8 6 20 8 26 4 7 -4 18 1 25 11 11 15 16 16 28 6 12 -10 36 -10 117 3 57 9
106 13 110 9 4 -5 10 -35 14 -69 l7 -61 -104 -18 c-57 -11 -106 -18 -110 -17
-12 3 -10 -5 10 -35 12 -21 25 -28 47 -28 17 0 35 3 40 7 18 11 32 -5 31 -37
-1 -28 2 -30 37 -33 22 -2 35 -7 31 -13 -4 -7 3 -9 16 -7 23 3 24 5 75 151 33
94 78 307 114 542 27 176 51 354 51 377 0 12 63 10 223 -6 78 -8 180 -17 227
-20 47 -4 148 -11 224 -16 76 -6 141 -9 143 -6 2 2 6 30 9 62 8 92 12 104 35
104 11 0 28 -4 38 -10 14 -7 24 -4 41 10 13 11 34 20 48 20 27 0 27 -1 6 128
-5 34 -4 42 9 42 9 0 19 5 22 10 9 14 -15 42 -31 36 -8 -3 -14 13 -19 52 -3
31 -8 69 -11 85 -3 21 0 27 14 27 10 0 22 3 25 7 10 10 -13 32 -27 27 -8 -3
-16 4 -19 18 -14 58 -47 431 -38 440 5 5 293 -18 435 -36 21 -2 35 -1 30 4 -9
8 -191 51 -509 121 -104 23 -191 42 -193 44 -1 1 2 15 7 31 5 16 12 44 15 62
5 28 2 34 -19 42 -29 11 -33 30 -7 31 11 0 12 2 4 6 -7 3 -17 16 -22 29 -6 15
-18 24 -32 25 -13 0 -34 3 -48 5 -14 2 -31 5 -37 6 -7 1 -13 9 -13 18 0 12 -8
16 -32 14 -50 -4 -78 6 -78 27 0 13 -5 17 -17 12 -11 -4 -12 -8 -5 -11 19 -6
14 -22 -7 -22 -15 0 -19 5 -16 21 4 18 1 20 -20 15 -13 -3 -26 -2 -30 3 -3 5
4 11 15 13 19 3 19 3 -1 36 -15 23 -25 30 -33 23 -9 -7 -16 -7 -24 1 -9 9 -15
7 -26 -8 -8 -10 -17 -16 -21 -13 -9 10 44 61 56 54 5 -4 7 -11 4 -16 -3 -5 1
-6 9 -3 9 3 17 27 21 65 5 44 12 62 26 70 24 12 15 32 -11 24 -11 -4 -20 1
-24 11 -6 16 -8 16 -23 2 -8 -9 -15 -28 -15 -42 0 -18 -6 -26 -19 -26 -10 0
-21 5 -24 10 -13 22 -46 8 -74 -30 l-29 -41 -12 36 c-9 27 -17 35 -35 35 -13
0 -30 8 -37 18 -20 27 -108 61 -108 41z m60 -79 c0 -5 -5 -10 -11 -10 -5 0 -7
5 -4 10 3 6 8 10 11 10 2 0 4 -4 4 -10z m-53 -22 c-3 -8 -6 -5 -6 6 -1 11 2
17 5 13 3 -3 4 -12 1 -19z m261 2 c-7 -11 -15 -15 -17 -9 -2 6 3 15 10 20 20
12 21 11 7 -11z m82 -4 c0 -11 -19 -15 -25 -6 -3 5 1 10 9 10 9 0 16 -2 16 -4z
m-48 -28 c-7 -7 -12 -8 -12 -2 0 14 12 26 19 19 2 -3 -1 -11 -7 -17z m-72 -48
c0 -5 -4 -10 -10 -10 -5 0 -10 5 -10 10 0 6 5 10 10 10 6 0 10 -4 10 -10z m25
1 c3 -5 2 -12 -3 -15 -5 -3 -9 1 -9 9 0 17 3 19 12 6z m64 -51 c8 -3 17 -13
19 -21 3 -11 2 -12 -6 -1 -5 8 -21 15 -35 15 -15 1 -28 9 -30 19 -4 14 -2 15
17 6 11 -6 27 -14 35 -18z m51 -30 c0 -5 -2 -10 -4 -10 -3 0 -8 5 -11 10 -3 6
-1 10 4 10 6 0 11 -4 11 -10z m-240 -62 l0 -33 -13 25 c-9 17 -10 27 -3 32 16
11 16 11 16 -24z m610 -158 c0 -5 -7 -10 -15 -10 -8 0 -15 5 -15 10 0 6 7 10
15 10 8 0 15 -4 15 -10z m-224 -33 c4 -4 0 -7 -9 -7 -9 0 -18 4 -21 9 -7 10
20 9 30 -2z m49 3 c3 -5 2 -10 -4 -10 -5 0 -13 5 -16 10 -3 6 -2 10 4 10 5 0
13 -4 16 -10z m-1027 -1942 c-6 -18 -28 -21 -28 -4 0 9 7 16 16 16 9 0 14 -5
12 -12z"/>
<path d="M1292 2758 c-18 -18 -15 -36 8 -50 11 -7 20 -18 20 -25 0 -7 -9 -18
-20 -25 -23 -15 -26 -28 -6 -28 22 0 66 40 66 61 0 12 -11 24 -27 31 -23 9
-25 12 -10 15 21 5 18 27 -4 31 -8 1 -20 -3 -27 -10z"/>
<path d="M1210 2730 c-11 -11 -20 -26 -20 -34 0 -13 51 -46 70 -46 4 0 7 23 7
50 -1 41 -4 50 -19 50 -10 0 -27 -9 -38 -20z"/>
<path d="M1876 2698 c-9 -12 -16 -28 -16 -35 0 -6 -9 -15 -20 -18 -11 -3 -20
-11 -20 -17 0 -5 7 -8 15 -4 11 4 15 -3 16 -27 1 -21 3 -25 6 -12 8 32 23 42
23 16 0 -21 4 -23 30 -17 17 3 30 1 30 -4 0 -6 5 -10 11 -10 5 0 9 10 7 22 -2
18 3 24 27 29 35 8 28 10 -43 14 -30 2 -57 6 -60 10 -4 3 1 19 10 35 20 35 6
50 -16 18z m44 -82 c0 -3 -4 -8 -10 -11 -5 -3 -10 -1 -10 4 0 6 5 11 10 11 6
0 10 -2 10 -4z"/>
<path d="M4854 2699 c-12 -14 -19 -40 -22 -84 -4 -55 -2 -64 16 -74 11 -6 23
-22 26 -36 7 -29 24 -33 33 -7 4 9 15 23 25 30 36 26 17 82 -28 82 -13 0 -24
8 -27 20 -6 22 3 26 20 9 16 -16 33 -2 33 26 0 25 -24 55 -44 55 -7 0 -21 -9
-32 -21z"/>
<path d="M370 2670 c0 -5 7 -10 16 -10 8 0 12 5 9 10 -3 6 -10 10 -16 10 -5 0
-9 -4 -9 -10z"/>
<path d="M5086 2673 c-12 -12 -5 -23 14 -23 11 0 20 4 20 9 0 11 -26 22 -34
14z"/>
<path d="M4636 2645 c-35 -9 -55 -10 -66 -3 -11 7 -27 7 -46 1 -23 -7 -32 -20
-45 -59 l-16 -49 -27 42 c-34 50 -51 58 -75 34 -13 -13 -23 -16 -35 -9 -9 5
-33 8 -54 6 -52 -4 -67 -37 -48 -102 13 -43 13 -47 -5 -56 -10 -6 -38 -13 -62
-16 l-45 -6 -7 80 c-4 45 -12 88 -18 96 -16 21 -39 6 -40 -25 -2 -37 25 -193
34 -205 7 -8 26 -8 71 1 61 13 88 33 88 64 0 11 6 9 23 -7 13 -12 33 -22 45
-22 44 0 80 61 69 117 -5 27 -5 27 10 8 8 -11 26 -44 39 -72 14 -31 30 -53 39
-53 18 0 40 46 50 107 4 24 10 45 15 48 9 5 47 -79 56 -125 8 -36 14 -36 84
-2 79 39 71 70 -12 49 -43 -11 -33 7 17 31 68 33 77 77 12 55 -68 -24 -77 -25
-77 -11 0 8 23 22 51 32 53 19 72 42 48 57 -17 10 -12 11 -73 -6z m-324 -112
c19 -17 24 -58 8 -68 -15 -9 -50 32 -50 60 0 29 16 32 42 8z"/>
<path d="M4996 2608 c-39 -39 -44 -59 -22 -77 11 -10 17 -7 30 11 9 12 16 27
16 32 0 5 8 18 17 28 12 14 14 21 5 30 -8 8 -20 2 -46 -24z"/>
<path d="M453 2596 c0 -17 3 -23 7 -16 6 9 9 9 12 -1 3 -8 8 -12 11 -9 3 3 -2
16 -12 29 l-18 24 0 -27z"/>
<path d="M2093 2583 c6 -32 2 -45 -18 -73 -14 -18 -22 -36 -19 -39 11 -11 94
101 94 127 0 20 -16 14 -28 -10 l-11 -23 0 22 c-1 12 -6 25 -13 29 -8 5 -9 -4
-5 -33z"/>
<path d="M2176 2575 c-13 -36 -7 -57 17 -53 17 2 22 10 22 33 0 33 -28 47 -39
20z"/>
<path d="M2240 2557 c0 -13 6 -31 13 -41 11 -15 17 -17 35 -7 12 6 22 20 22
31 0 28 -18 34 -22 8 -4 -30 -22 -25 -26 7 -4 31 -22 33 -22 2z"/>
<path d="M5105 2570 c-3 -5 -1 -10 4 -10 6 0 11 5 11 10 0 6 -2 10 -4 10 -3 0
-8 -4 -11 -10z"/>
<path d="M1212 2509 c2 -7 10 -15 17 -17 8 -3 12 1 9 9 -2 7 -10 15 -17 17 -8
3 -12 -1 -9 -9z"/>
<path d="M5106 2502 c-4 -8 -5 -46 -1 -86 l6 -72 -35 -14 c-20 -7 -36 -19 -37
-24 -1 -22 -28 50 -29 77 0 50 -49 45 -50 -6 0 -10 -7 -25 -15 -33 -18 -19
-19 -53 -1 -77 13 -16 15 -16 30 -2 14 15 16 15 16 1 0 -19 30 -22 30 -3 1 7
6 5 14 -6 10 -13 11 -28 4 -63 -20 -91 19 -65 57 39 23 64 25 84 23 177 -2 63
-6 100 -12 92z"/>
<path d="M647 2489 c7 -7 15 -10 18 -7 3 3 -2 9 -12 12 -14 6 -15 5 -6 -5z"/>
<path d="M4879 2373 c-6 -15 -8 -38 -6 -51 3 -17 1 -22 -10 -18 -16 7 -37 -40
-28 -63 6 -13 10 -12 26 8 16 19 20 21 25 7 3 -9 13 -16 20 -16 12 0 14 15 12
77 -3 82 -20 106 -39 56z"/>
<path d="M4721 2373 c-5 -10 -13 -17 -18 -15 -4 2 -10 -5 -12 -14 -2 -12 2
-15 13 -11 24 9 20 -25 -4 -46 -25 -21 -43 -13 -35 14 6 17 1 19 -55 19 -53 0
-63 -3 -67 -20 -3 -12 -14 -20 -27 -20 -12 0 -27 -5 -33 -11 -8 -8 -13 -6 -17
9 -10 31 -38 37 -58 12 -23 -28 -23 -82 0 -145 19 -54 18 -85 -3 -85 -24 0
-55 -51 -55 -89 0 -63 38 -80 80 -36 12 13 27 22 32 19 5 -3 15 0 23 6 11 9
18 10 29 1 10 -9 16 -7 27 5 20 24 -11 69 -48 69 -23 1 -29 6 -34 30 -13 59
-10 132 6 145 12 10 15 10 15 -4 0 -25 35 -19 50 8 14 28 40 24 40 -5 0 -25
16 -24 37 1 13 14 20 17 30 8 9 -7 17 -7 28 2 13 11 18 10 29 -5 12 -17 13
-17 27 1 8 11 25 19 37 18 13 -1 36 9 50 21 23 20 24 25 13 39 -7 9 -24 16
-37 16 -21 0 -24 5 -24 40 0 43 -21 55 -39 23z m-294 -397 c-4 -9 -13 -16 -22
-16 -24 0 -29 29 -9 51 l19 21 9 -21 c5 -11 6 -27 3 -35z"/>
<path d="M4816 2344 c-4 -9 -4 -19 -2 -22 10 -9 36 8 36 23 0 20 -26 19 -34
-1z"/>
<path d="M4090 2286 c0 -24 -7 -39 -21 -50 -24 -16 -20 -49 5 -40 10 4 16 -4
21 -25 8 -36 23 -49 31 -27 3 8 12 12 21 9 9 -4 22 2 31 13 10 14 16 15 19 6
10 -25 123 11 123 39 0 7 -10 9 -25 5 -23 -6 -24 -4 -19 24 6 25 3 30 -13 30
-10 0 -23 -4 -28 -9 -6 -5 -22 -7 -37 -4 -20 4 -29 13 -33 34 -7 30 -19 38
-29 17 -5 -10 -7 -10 -12 0 -12 26 -34 12 -34 -22z"/>
<path d="M403 2303 c-21 -8 -15 -23 10 -23 35 0 67 11 61 21 -5 9 -50 11 -71
2z"/>
<path d="M258 2289 c-24 -14 -23 -33 1 -26 17 4 20 -1 23 -31 2 -19 9 -37 16
-40 9 -3 11 7 6 40 -5 30 -3 40 4 33 6 -5 12 -23 14 -39 4 -36 28 -48 29 -14
0 22 1 22 9 2 11 -27 100 -35 100 -8 0 11 -6 15 -20 11 -11 -3 -20 -2 -20 3 0
4 9 10 20 13 37 10 23 32 -21 33 -23 1 -45 8 -50 15 -7 11 -11 12 -17 1 -7
-10 -11 -10 -22 3 -14 17 -47 19 -72 4z"/>
<path d="M83 2268 c-15 -7 -23 -20 -23 -35 0 -23 -1 -23 -22 -9 -32 23 -38 20
-38 -15 0 -24 4 -30 15 -25 8 3 15 1 15 -4 0 -15 30 -12 30 3 0 6 5 4 11 -5
13 -23 72 -24 89 -3 17 21 7 29 -18 16 -12 -6 -27 -11 -34 -10 -7 0 -1 5 15
11 27 10 36 31 18 43 -5 3 -12 1 -16 -5 -9 -14 -37 -12 -33 3 3 6 21 14 42 17
20 3 38 10 39 15 3 14 -64 16 -90 3z"/>
<path d="M4945 2130 c-8 -16 -15 -49 -15 -73 0 -30 -5 -47 -14 -50 -11 -4 -14
1 -13 21 3 35 -34 43 -56 12 l-15 -21 -20 28 -20 28 -25 -23 c-20 -19 -26 -21
-36 -8 -19 23 -48 25 -66 6 -16 -18 -18 -18 -62 3 -38 18 -45 19 -53 7 -13
-20 -12 -27 3 -41 7 -7 11 -25 9 -40 -2 -14 0 -29 5 -32 13 -8 115 20 123 33
5 9 13 8 28 -1 16 -10 26 -10 45 -2 23 11 26 9 36 -18 6 -18 6 -29 0 -29 -5 0
-9 -9 -9 -20 0 -11 7 -20 15 -20 18 0 55 35 55 53 0 15 56 38 76 30 26 -10 72
17 83 49 14 38 14 53 0 101 -13 48 -51 52 -74 7z"/>
<path d="M4179 2124 c-7 -9 -14 -37 -15 -63 -2 -39 -6 -48 -30 -62 -24 -13
-30 -23 -32 -57 -3 -37 -1 -42 18 -42 15 0 25 10 33 30 15 40 34 38 54 -5 17
-35 36 -45 48 -24 5 6 13 3 22 -10 23 -33 47 -27 40 9 -5 22 -3 30 8 30 8 0
15 6 15 13 0 13 -100 117 -113 117 -4 0 -7 -9 -7 -21 0 -11 -4 -17 -10 -14 -5
3 -10 20 -10 37 0 27 2 30 25 24 20 -5 25 -3 25 12 0 39 -46 56 -71 26z m131
-182 c-14 -2 -20 -9 -16 -18 3 -8 9 -21 12 -29 3 -8 1 -15 -5 -15 -6 0 -13 11
-17 25 -7 29 -11 30 -36 8 -17 -15 -18 -13 -18 58 l0 73 51 -49 c44 -44 48
-50 29 -53z"/>
<path d="M170 2071 c0 -16 5 -42 10 -57 16 -41 31 -17 22 36 -9 51 -32 67 -32
21z"/>
<path d="M0 1995 c0 -15 6 -25 14 -25 22 0 30 19 16 35 -18 22 -30 18 -30 -10z"/>
<path d="M2040 1990 c-24 -24 -19 -40 14 -40 21 0 56 26 45 33 -2 1 -12 8 -21
15 -14 11 -20 10 -38 -8z"/>
<path d="M1780 1985 c-22 -26 12 -49 37 -24 14 14 6 39 -12 39 -7 0 -18 -7
-25 -15z"/>
<path d="M1931 1960 c-28 -24 -47 -25 -55 -5 -4 13 -10 14 -26 5 -16 -9 -18
-15 -10 -30 25 -47 150 -27 150 24 0 32 -25 34 -59 6z"/>
<path d="M2248 1942 c-8 -20 -13 -43 -10 -50 6 -18 42 -15 42 5 0 9 7 24 16
34 20 22 12 49 -14 49 -13 0 -24 -13 -34 -38z"/>
<path d="M2356 1935 c-29 -44 -15 -64 31 -41 15 8 37 18 47 21 16 5 13 9 -20
25 -21 11 -39 20 -40 20 -1 0 -9 -11 -18 -25z"/>
<path d="M4582 1897 c-12 -13 -22 -28 -22 -35 0 -19 -17 -23 -44 -11 -41 19
-76 -2 -76 -44 0 -40 23 -63 100 -102 30 -14 59 -33 63 -41 4 -8 15 -14 23
-14 12 0 14 15 12 78 -1 42 1 103 6 135 9 56 8 57 -16 57 -13 0 -34 -10 -46
-23z m24 -74 c-2 -3 -9 -2 -15 2 -8 4 -7 13 1 28 l13 22 3 -23 c2 -13 1 -26
-2 -29z m-89 -25 c20 -19 27 -20 43 -10 32 20 40 14 40 -28 l0 -41 -47 27
c-53 29 -83 53 -83 66 0 15 23 8 47 -14z"/>
<path d="M1726 1878 c-3 -13 -1 -27 4 -32 12 -12 17 -7 25 27 5 20 4 27 -8 27
-8 0 -17 -10 -21 -22z"/>
<path d="M1802 1869 c2 -6 8 -10 13 -10 5 0 11 4 13 10 2 6 -4 11 -13 11 -9 0
-15 -5 -13 -11z"/>
<path d="M2564 1869 c-4 -7 1 -18 11 -26 26 -18 32 -16 30 10 -2 24 -29 35
-41 16z"/>
<path d="M78 1848 c-22 -16 -22 -17 -3 -24 11 -4 28 -15 38 -26 10 -10 22 -18
27 -18 13 0 13 17 0 25 -20 13 -9 24 28 27 53 4 42 22 -17 28 -38 4 -56 1 -73
-12z"/>
<path d="M2427 1863 c-14 -13 -6 -33 13 -33 11 0 19 -5 18 -12 -4 -16 30 -22
47 -8 21 17 7 43 -21 37 -16 -3 -24 0 -24 9 0 14 -22 19 -33 7z"/>
<path d="M0 1820 c0 -44 20 -61 48 -43 26 16 25 31 -2 58 -35 35 -46 31 -46
-15z m30 -10 c0 -5 -2 -10 -4 -10 -3 0 -8 5 -11 10 -3 6 -1 10 4 10 6 0 11 -4
11 -10z"/>
<path d="M2112 1833 c2 -21 9 -29 27 -31 36 -5 47 12 22 37 -30 30 -53 28 -49
-6z"/>
<path d="M2000 1814 c0 -26 27 -33 48 -12 21 21 13 35 -18 36 -25 1 -30 -3
-30 -24z"/>
<path d="M2374 1795 c-8 -21 2 -45 20 -45 19 0 29 29 15 46 -15 18 -28 18 -35
-1z"/>
<path d="M1866 1781 c-3 -5 1 -11 9 -15 15 -6 29 7 18 18 -9 9 -21 8 -27 -3z"/>
<path d="M4657 1783 c-15 -14 -5 -41 26 -71 37 -36 49 -39 68 -16 11 14 10 19
-11 36 -14 12 -24 28 -22 39 3 15 -3 19 -26 19 -16 0 -32 -3 -35 -7z"/>
<path d="M1787 1764 c-14 -14 -7 -35 11 -32 9 2 17 10 17 17 0 16 -18 25 -28
15z"/>
<path d="M138 1726 c-20 -6 -40 -14 -43 -18 -4 -4 -27 -5 -51 -1 -35 4 -44 3
-44 -9 0 -11 7 -14 25 -11 20 4 28 -2 46 -31 22 -37 39 -47 39 -22 0 8 15 23
34 34 l34 20 11 -24 c6 -13 16 -24 22 -24 11 0 9 16 -6 52 -5 12 -1 17 16 20
12 2 24 9 27 16 5 15 -58 15 -110 -2z m2 -30 c0 -2 -7 -6 -15 -10 -8 -3 -15
-1 -15 4 0 6 7 10 15 10 8 0 15 -2 15 -4z"/>
<path d="M2165 1711 c-7 -24 3 -51 21 -51 18 0 36 34 28 54 -8 22 -41 20 -49
-3z"/>
<path d="M2587 1713 c-13 -12 -7 -23 13 -23 11 0 20 7 20 15 0 15 -21 21 -33
8z"/>
<path d="M2440 1681 c0 -16 6 -21 26 -21 33 0 30 33 -4 38 -17 3 -22 -2 -22
-17z"/>
<path d="M2351 1656 c-22 -24 -27 -51 -11 -61 17 -10 60 26 60 50 0 32 -24 38
-49 11z"/>
<path d="M2503 1664 c-8 -21 13 -42 28 -27 13 13 5 43 -11 43 -6 0 -13 -7 -17
-16z"/>
<path d="M0 1640 c0 -34 6 -36 38 -14 19 13 20 17 8 30 -25 24 -46 17 -46 -16z"/>
<path d="M1847 1653 c-13 -12 -7 -23 13 -23 11 0 20 7 20 15 0 15 -21 21 -33
8z"/>
<path d="M2232 1626 c-37 -41 -40 -56 -13 -56 11 0 23 -9 26 -20 3 -11 15 -20
25 -20 37 0 45 121 9 128 -8 1 -30 -13 -47 -32z"/>
<path d="M2023 1603 c-8 -3 -13 -22 -13 -45 0 -31 3 -39 17 -36 24 4 39 56 22
73 -8 7 -20 11 -26 8z"/>
<path d="M5036 1595 c-3 -9 -6 -22 -5 -28 0 -7 5 -1 10 12 5 13 8 26 5 28 -2
2 -6 -3 -10 -12z"/>
<path d="M2351 1567 c-16 -20 -4 -44 25 -50 23 -4 25 -2 22 27 -3 34 -27 46
-47 23z"/>
<path d="M2514 1546 c-17 -27 -16 -67 2 -73 7 -2 22 12 34 32 18 29 20 38 10
50 -17 21 -27 19 -46 -9z"/>
<path d="M5030 1543 c0 -14 21 -30 40 -30 8 -1 24 -4 34 -9 19 -7 19 -7 0 13
-14 15 -23 17 -33 9 -10 -8 -17 -5 -27 9 -8 10 -14 14 -14 8z"/>
<path d="M1764 1529 c-3 -6 1 -18 9 -27 13 -12 19 -13 31 -3 8 7 12 19 9 27
-6 17 -39 19 -49 3z"/>
<path d="M1973 1513 c-7 -2 -13 -20 -13 -38 0 -20 -6 -35 -15 -39 -19 -7 -19
-30 -1 -45 10 -9 16 -9 21 -1 4 6 17 15 30 20 32 12 40 69 12 93 -11 9 -20 17
-21 16 -1 0 -7 -3 -13 -6z"/>
<path d="M2310 1460 c-13 -24 -5 -40 19 -40 24 0 45 25 37 45 -8 22 -43 18
-56 -5z"/>
<path d="M3212 1438 c3 -7 16 -14 29 -16 21 -2 27 -13 43 -68 10 -35 23 -67
27 -70 13 -8 11 14 -6 71 -17 54 -14 75 10 75 9 0 13 5 10 10 -9 15 -118 13
-113 -2z"/>
<path d="M2420 1410 c0 -23 5 -30 19 -30 20 0 37 32 26 50 -3 5 -15 10 -26 10
-14 0 -19 -7 -19 -30z"/>
<path d="M3187 1424 c-3 -4 -3 -19 0 -35 4 -22 2 -29 -10 -29 -9 0 -19 9 -22
20 -6 20 -20 26 -28 13 -7 -14 38 -136 52 -141 10 -3 12 1 8 17 -4 11 -10 30
-13 41 -5 14 -2 20 10 20 10 0 16 -9 16 -25 0 -16 6 -25 16 -25 13 0 15 7 11
29 -3 15 -1 33 5 39 8 8 7 13 -5 18 -9 3 -17 17 -17 29 0 24 -12 39 -23 29z"/>
<path d="M132 1412 l-132 -3 1 -227 1 -227 33 120 c30 108 61 206 87 273 4 13
14 22 21 19 7 -3 37 -1 67 3 30 5 112 14 183 21 70 7 127 16 127 21 0 5 -57 8
-127 6 -71 -2 -188 -4 -261 -6z"/>
<path d="M2803 1398 c-42 -20 -40 -38 22 -182 20 -47 41 -36 23 12 -11 28 -10
34 2 42 24 16 35 12 71 -24 23 -24 42 -34 61 -34 30 1 34 8 18 36 -5 9 -17 43
-25 74 -16 55 -30 77 -42 64 -3 -3 4 -31 16 -62 31 -83 28 -91 -23 -50 -23 20
-48 36 -55 36 -8 0 -9 13 -5 39 5 33 3 41 -14 50 -24 13 -21 13 -49 -1z m33
-50 c-9 -47 -23 -55 -31 -18 -5 23 -3 35 6 41 25 16 32 9 25 -23z"/>
<path d="M1812 1373 c2 -10 10 -18 18 -18 8 0 16 8 18 18 2 12 -3 17 -18 17
-15 0 -20 -5 -18 -17z"/>
<path d="M3012 1358 c-10 -39 1 -88 25 -105 25 -19 63 -16 63 5 1 16 1 16 11
0 19 -33 31 -20 24 25 -9 53 -20 67 -56 67 -31 0 -41 -26 -14 -36 19 -8 20
-44 1 -44 -32 0 -42 39 -25 99 2 7 -1 15 -8 18 -7 2 -16 -10 -21 -29z"/>
<path d="M1932 1328 c4 -26 54 -46 71 -29 9 9 6 17 -13 31 -35 27 -62 26 -58
-2z"/>
<path d="M2453 1294 c-4 -10 2 -23 14 -33 10 -9 27 -28 36 -43 24 -39 34 -35
31 15 -1 32 -6 44 -23 52 -11 5 -21 13 -21 17 0 15 -31 8 -37 -8z"/>
<path d="M3357 1303 c-11 -19 -17 -83 -8 -83 15 0 35 70 23 82 -5 5 -12 6 -15
1z"/>
<path d="M1805 1190 c-8 -14 3 -30 21 -30 8 0 14 9 14 20 0 21 -24 28 -35 10z"/>
<path d="M3460 1191 c0 -5 5 -13 10 -16 6 -3 10 -2 10 4 0 5 -4 13 -10 16 -5
3 -10 2 -10 -4z"/>
<path d="M3297 1178 c-4 -10 -9 -25 -12 -33 -2 -8 -15 -19 -29 -25 -13 -5 -27
-19 -31 -31 -5 -16 -9 -18 -15 -8 -6 8 -2 18 8 26 15 11 15 12 -4 13 -12 0
-25 7 -28 16 -3 8 -10 13 -15 9 -6 -3 -8 -12 -5 -19 3 -8 1 -17 -5 -21 -18
-10 -12 -25 9 -25 12 0 25 -10 32 -25 12 -26 24 -32 30 -14 2 6 23 11 46 12
24 1 47 8 51 16 7 10 13 11 29 2 43 -23 45 -3 2 22 -16 10 -30 25 -30 33 0 8
-4 14 -9 14 -5 0 -11 12 -13 28 -3 21 -6 23 -11 10z m13 -82 c0 -8 -4 -18 -10
-21 -5 -3 -10 3 -10 14 0 12 5 21 10 21 6 0 10 -6 10 -14z"/>
<path d="M3527 1178 c-16 -12 -15 -15 8 -40 47 -51 75 -28 32 25 -20 23 -25
25 -40 15z"/>
<path d="M1894 1165 c-4 -9 -2 -21 4 -27 15 -15 44 -1 40 19 -4 23 -36 29 -44
8z"/>
<path d="M2424 1135 c-4 -9 -2 -21 4 -27 15 -15 44 -1 40 19 -4 23 -36 29 -44
8z"/>
<path d="M3470 1141 c0 -13 29 -35 37 -28 7 8 -15 37 -28 37 -5 0 -9 -4 -9 -9z"/>
<path d="M2960 1126 c0 -2 7 -20 16 -41 15 -36 12 -95 -5 -95 -4 0 -13 18 -20
40 -6 22 -16 40 -21 40 -16 0 -28 -34 -19 -55 13 -33 10 -39 -10 -21 -10 9
-21 34 -25 54 -6 39 -21 70 -30 61 -3 -3 -9 -37 -12 -77 -6 -63 -5 -72 11 -78
11 -5 21 -1 27 10 7 13 13 14 23 6 7 -6 29 -8 51 -4 22 3 52 6 67 6 22 1 28 5
24 17 -3 13 2 16 22 13 14 -2 40 2 56 9 17 6 39 12 49 13 23 1 34 26 11 26 -8
0 -27 7 -40 16 -16 10 -31 13 -42 8 -10 -4 -25 -9 -33 -10 -8 -1 -23 -5 -32
-9 -13 -5 -20 -1 -27 16 -5 14 -5 29 0 35 5 6 6 14 2 17 -7 7 -43 10 -43 3z
m-23 -108 c-3 -8 -6 -5 -6 6 -1 11 2 17 5 13 3 -3 4 -12 1 -19z m-80 -20 c-3
-8 -6 -5 -6 6 -1 11 2 17 5 13 3 -3 4 -12 1 -19z"/>
<path d="M1867 1093 c-21 -20 18 -61 48 -49 11 4 11 10 2 30 -11 25 -36 34
-50 19z"/>
<path d="M4410 1090 c0 -5 7 -7 15 -4 9 4 15 0 15 -10 0 -9 4 -16 9 -16 5 0
16 -3 25 -6 9 -3 16 -1 16 6 0 6 -4 8 -10 5 -5 -3 -10 1 -10 10 0 9 -4 14 -9
10 -5 -3 -12 -1 -16 5 -8 13 -35 13 -35 0z"/>
<path d="M4545 1081 c-3 -5 -1 -12 4 -15 5 -3 11 1 15 9 6 16 -9 21 -19 6z"/>
<path d="M3407 1074 c-10 -10 -9 -44 2 -44 13 0 23 32 13 42 -5 5 -11 5 -15 2z"/>
<path d="M3608 1054 c-5 -4 -8 -15 -8 -25 0 -25 -19 -34 -33 -15 -8 10 -20 14
-34 10 -30 -8 -29 -22 2 -36 13 -6 27 -19 30 -30 8 -25 29 -23 22 2 -3 13 0
20 9 20 8 0 14 -6 14 -14 0 -21 21 -31 30 -16 5 7 32 15 62 16 67 4 90 8 105
17 6 4 18 -4 28 -19 22 -34 27 -27 13 18 -10 32 -14 36 -44 35 -18 -1 -36 -7
-38 -14 -8 -19 -24 -16 -31 7 -8 26 -30 25 -49 -2 -14 -19 -16 -19 -22 -5 -8
21 -24 22 -24 2 0 -31 -19 -13 -22 21 -2 20 -6 32 -10 28z"/>
<path d="M2524 986 c-9 -24 0 -51 18 -54 19 -4 42 33 34 54 -7 18 -45 18 -52
0z"/>
<path d="M3425 974 c-9 -9 -14 -23 -11 -31 4 -8 3 -20 -1 -26 -4 -7 -9 -2 -13
13 -3 14 -14 26 -24 28 -17 4 -18 -1 -12 -36 8 -53 -8 -62 -30 -17 -9 19 -21
38 -27 42 -16 10 -39 -29 -32 -55 9 -35 -17 -23 -34 16 -18 40 -42 38 -53 -3
-10 -36 -4 -55 17 -55 12 0 14 7 9 28 l-6 27 17 -23 c14 -20 23 -22 61 -18 24
2 44 3 44 1 0 -1 -7 -16 -15 -31 -18 -36 -19 -64 -2 -64 19 0 37 21 37 42 0
24 29 68 45 68 6 0 25 11 41 25 24 21 27 27 14 35 -13 9 -13 12 3 24 9 7 17
16 17 20 0 12 -29 6 -45 -10z m-115 -70 c0 -8 -5 -12 -10 -9 -6 4 -8 11 -5 16
9 14 15 11 15 -7z"/>
<path d="M50 946 c0 -8 4 -17 9 -20 5 -3 7 -15 4 -26 -4 -13 0 -20 9 -20 35 0
54 62 22 74 -26 10 -44 7 -44 -8z"/>
<path d="M2940 927 c0 -31 -22 -78 -35 -73 -5 2 -9 10 -7 20 4 21 -24 21 -36
0 -6 -10 -5 -25 2 -40 9 -19 18 -24 41 -22 22 2 30 8 30 22 0 27 22 32 30 7
10 -32 28 -25 20 8 -5 22 -2 30 12 36 16 7 15 9 -7 14 -16 4 -26 15 -28 29 -4
29 -22 28 -22 -1z"/>
<path d="M3096 914 c-9 -8 -16 -19 -16 -24 0 -11 29 -40 40 -40 22 0 40 14 40
30 0 19 -25 50 -40 50 -5 0 -16 -7 -24 -16z m42 -26 c-6 -18 -28 -21 -28 -4 0
9 7 16 16 16 9 0 14 -5 12 -12z"/>
<path d="M1344 912 c3 -5 0 -13 -6 -15 -9 -4 -10 -6 -1 -6 17 -1 25 16 12 25
-7 4 -9 3 -5 -4z"/>
<path d="M3034 906 c-9 -23 0 -69 14 -74 10 -3 12 4 7 32 -5 24 -3 36 4 36 6
0 11 5 11 10 0 15 -30 12 -36 -4z"/>
<path d="M7 893 c-4 -3 -7 -26 -7 -50 l0 -43 25 16 c27 17 33 52 13 72 -14 14
-22 15 -31 5z"/>
<path d="M953 863 c-18 -20 -29 -41 -26 -47 4 -6 8 -4 11 4 2 8 18 30 35 48
17 17 27 32 21 32 -5 -1 -23 -17 -41 -37z"/>
<path d="M1550 891 c0 -5 9 -7 20 -4 11 3 20 7 20 9 0 2 -9 4 -20 4 -11 0 -20
-4 -20 -9z"/>
<path d="M1656 884 c-19 -50 3 -58 35 -11 l23 32 -27 -24 c-25 -23 -26 -23
-20 -2 6 24 -2 28 -11 5z"/>
<path d="M4297 881 c-4 -17 -3 -21 5 -13 5 5 8 16 6 23 -3 8 -7 3 -11 -10z"/>
<path d="M104 876 c-3 -8 -1 -24 6 -35 7 -14 7 -21 0 -21 -5 0 -10 -9 -10 -20
0 -13 7 -20 19 -20 32 0 50 27 48 68 -3 32 -6 37 -30 40 -17 2 -29 -2 -33 -12z"/>
<path d="M1492 850 c0 -14 2 -19 5 -12 2 6 2 18 0 25 -3 6 -5 1 -5 -13z"/>
<path d="M1171 841 c-6 -10 -6 -23 0 -32 7 -12 9 -12 10 1 1 8 1 18 1 21 -1 4
8 5 18 2 11 -3 20 -1 20 5 0 18 -40 21 -49 3z"/>
<path d="M1331 839 c-22 -13 -43 -18 -60 -15 -23 6 -24 5 -7 -5 21 -13 71 0
111 27 31 22 -5 16 -44 -7z"/>
<path d="M3837 828 c-2 -18 -1 -35 3 -38 5 -3 12 -18 15 -33 10 -39 22 -33 19
11 -2 35 -19 92 -28 92 -2 0 -6 -15 -9 -32z"/>
<path d="M1099 843 c-1 -5 -2 -14 -3 -21 0 -7 -8 -17 -16 -22 -13 -8 -13 -10
2 -10 9 0 20 10 24 23 4 12 12 25 18 29 7 5 4 8 -6 8 -10 0 -19 -3 -19 -7z"/>
<path d="M4184 840 c-5 -5 -64 -13 -130 -18 -74 -4 -117 -11 -114 -17 3 -6 90
-9 240 -7 258 3 386 13 404 32 9 10 -31 11 -186 7 -124 -4 -198 -2 -200 4 -2
6 -7 6 -14 -1z"/>
<path d="M1000 825 c-8 -9 -8 -15 -2 -15 12 0 26 19 19 26 -2 2 -10 -2 -17
-11z"/>
<path d="M1461 823 c-1 -12 -7 -24 -13 -26 -10 -4 -10 -6 0 -6 15 -1 26 23 19
41 -3 7 -6 3 -6 -9z"/>
<path d="M1630 815 c0 -13 -8 -28 -17 -34 -14 -8 -13 -9 8 -8 21 2 24 6 21 34
-5 39 -12 44 -12 8z"/>
<path d="M909 773 c-43 -41 -65 -59 -88 -75 -15 -10 -21 -18 -16 -18 14 0 125
90 125 101 0 11 -1 11 -21 -8z"/>
<path d="M945 748 l-40 -43 45 40 c25 22 47 41 49 43 2 1 0 2 -5 2 -6 0 -28
-19 -49 -42z"/>
<path d="M3610 769 c0 -6 -10 -19 -21 -28 -19 -15 -20 -20 -10 -40 7 -13 10
-25 8 -28 -3 -2 -8 5 -12 16 -6 21 -35 30 -35 11 0 -5 -7 -7 -15 -4 -10 4 -15
0 -15 -11 0 -16 -1 -16 -26 0 -31 20 -44 12 -21 -13 10 -10 17 -23 17 -28 -1
-5 -11 4 -24 20 -29 35 -44 18 -15 -18 21 -26 59 -36 59 -15 0 8 5 8 15 -1 13
-11 19 -9 37 11 14 16 22 20 25 12 3 -7 10 -13 17 -13 7 0 19 -11 26 -25 7
-14 17 -25 22 -25 12 0 10 24 -3 37 -8 8 -7 17 2 34 7 15 14 19 17 11 6 -20
25 -13 19 8 -5 21 7 28 18 10 8 -13 55 -13 55 0 0 6 6 10 13 9 6 -1 22 -1 35
0 21 1 23 4 17 32 -5 22 -4 29 4 25 6 -4 11 -15 11 -25 0 -10 7 -24 15 -31 11
-9 15 -9 15 -1 0 22 -29 81 -39 81 -19 0 -49 -33 -44 -46 7 -19 -5 -18 -24 1
-14 14 -18 14 -39 1 -15 -10 -25 -12 -29 -5 -4 5 -15 7 -25 4 -13 -4 -19 1
-24 20 -6 25 -26 35 -26 14z m20 -91 c0 -15 -19 -8 -29 11 -14 25 0 37 16 15
7 -10 13 -21 13 -26z"/>
<path d="M1060 740 c-18 -12 -2 -12 25 0 13 6 15 9 5 9 -8 0 -22 -4 -30 -9z"/>
<path d="M3110 725 c0 -10 18 -42 40 -71 22 -29 45 -65 52 -78 6 -14 15 -23
19 -20 9 5 -10 42 -66 124 -46 68 -45 67 -45 45z"/>
<path d="M3240 725 c0 -2 5 -16 12 -30 10 -22 9 -28 -8 -41 -18 -15 -18 -15 9
-11 22 3 32 -1 44 -20 19 -29 29 -24 13 7 -9 16 -9 25 1 36 9 11 8 14 -10 14
-14 0 -25 9 -31 25 -8 21 -30 36 -30 20z"/>
<path d="M3900 720 c0 -5 5 -10 10 -10 6 0 10 5 10 10 0 6 -4 10 -10 10 -5 0
-10 -4 -10 -10z"/>
<path d="M4360 698 c-24 -40 -26 -81 -4 -102 21 -21 49 -20 100 4 43 21 59 47
43 71 -8 12 -12 11 -23 -3 -15 -21 -85 -52 -95 -43 -3 4 7 17 22 29 35 28 35
69 0 74 -16 2 -28 -6 -43 -30z"/>
<path d="M425 700 c-3 -5 -1 -10 4 -10 6 0 11 5 11 10 0 6 -2 10 -4 10 -3 0
-8 -4 -11 -10z"/>
<path d="M3050 700 c0 -5 7 -10 15 -10 8 0 15 5 15 10 0 6 -7 10 -15 10 -8 0
-15 -4 -15 -10z"/>
<path d="M3343 695 c-6 -18 24 -105 38 -105 13 0 11 21 -6 50 -18 32 -19 44
-1 37 12 -5 26 11 26 29 0 12 -52 2 -57 -11z"/>
<path d="M3020 666 c0 -2 7 -17 15 -32 17 -33 20 -64 6 -64 -5 0 -21 15 -35
33 -21 26 -26 28 -26 13 0 -11 9 -30 21 -42 19 -20 19 -23 4 -38 -30 -30 -81
-13 -55 19 18 22 8 60 -15 60 -15 0 -21 -8 -23 -32 -2 -20 -9 -33 -20 -35 -11
-2 -2 -11 27 -26 50 -26 100 -22 108 9 4 14 11 17 30 13 24 -6 25 -5 18 26
-11 49 -34 100 -45 100 -6 0 -10 -2 -10 -4z"/>
<path d="M4113 650 c-18 -11 -33 -25 -33 -32 0 -16 46 -86 83 -128 30 -33 46
-31 95 14 78 70 57 154 -32 132 -19 -5 -26 -1 -31 14 -8 26 -40 26 -82 0z m52
-39 c-7 -35 5 -46 31 -26 22 17 74 20 74 5 0 -6 -16 -27 -35 -48 l-35 -37 -40
45 c-43 48 -47 59 -28 78 23 23 40 14 33 -17z"/>
<path d="M3390 652 c0 -14 39 -46 47 -39 3 4 -2 16 -12 27 -19 21 -35 26 -35
12z"/>
<path d="M4594 646 c-15 -12 -16 -17 -7 -27 10 -10 17 -9 33 6 32 29 10 47
-26 21z"/>
<path d="M3080 638 c0 -16 40 -82 46 -76 6 6 -29 88 -38 88 -5 0 -8 -6 -8 -12z"/>
<path d="M475 620 c-3 -5 -12 -7 -20 -3 -11 4 -13 1 -9 -11 8 -22 21 -20 34 4
11 20 7 29 -5 10z"/>
<path d="M3757 593 c-11 -11 -8 -23 6 -23 8 0 19 -11 25 -25 15 -32 15 -38 1
-29 -7 4 -10 1 -7 -7 3 -8 13 -16 23 -17 15 -3 17 1 11 30 -4 18 -8 43 -9 56
-1 15 -8 22 -23 22 -11 0 -24 -3 -27 -7z"/>
<path d="M220 581 c0 -6 5 -13 10 -16 6 -3 10 1 10 9 0 9 -4 16 -10 16 -5 0
-10 -4 -10 -9z"/>
<path d="M1202 565 c0 -16 2 -22 5 -12 2 9 2 23 0 30 -3 6 -5 -1 -5 -18z"/>
<path d="M3666 583 c-3 -3 -6 -18 -6 -32 -1 -24 -2 -24 -14 -9 -15 20 -28 14
-19 -9 5 -13 -11 -32 -28 -33 -4 0 -9 14 -13 31 -3 19 -10 28 -17 23 -6 -3 -9
-17 -6 -30 6 -34 -9 -30 -22 6 -9 29 -31 42 -31 19 0 -6 -9 -8 -20 -4 -27 9
-36 -17 -20 -55 15 -36 35 -40 26 -5 -5 20 -3 25 13 25 11 0 25 -9 31 -20 8
-15 17 -18 48 -13 20 3 67 6 105 7 55 0 67 3 67 16 0 13 -7 15 -30 12 -48 -7
-60 2 -50 37 8 29 0 48 -14 34z"/>
<path d="M1063 540 c0 -25 2 -35 4 -22 2 12 2 32 0 45 -2 12 -4 2 -4 -23z"/>
<path d="M3834 565 c-7 -18 2 -45 14 -45 5 0 9 14 9 30 0 32 -14 40 -23 15z"/>
<path d="M1523 555 c0 -8 4 -15 9 -15 4 0 8 4 8 9 0 6 -4 12 -8 15 -5 3 -9 -1
-9 -9z"/>
<path d="M4612 534 c-8 -14 -15 -15 -40 -6 -41 14 -49 0 -18 -30 l24 -23 -24
-37 c-13 -21 -29 -38 -36 -38 -6 0 -4 8 5 18 22 24 21 32 -1 32 -27 0 -42 -20
-42 -56 0 -58 45 -49 100 21 17 22 37 40 43 41 26 2 27 5 17 24 -9 16 -8 18 5
14 8 -4 22 -3 31 0 15 6 14 10 -6 31 -27 29 -45 32 -58 9z"/>
<path d="M923 505 c-17 -19 -16 -25 2 -25 8 0 15 5 15 10 0 6 8 10 18 10 14 0
15 2 2 10 -19 13 -22 12 -37 -5z"/>
<path d="M1370 513 c8 -3 19 -11 23 -17 6 -7 7 -6 4 4 -2 8 -12 16 -23 17 -13
2 -15 1 -4 -4z"/>
<path d="M811 484 c0 -11 3 -14 6 -6 3 7 2 16 -1 19 -3 4 -6 -2 -5 -13z"/>
<path d="M1355 490 c-3 -5 -1 -10 4 -10 6 0 11 5 11 10 0 6 -2 10 -4 10 -3 0
-8 -4 -11 -10z"/>
<path d="M1800 426 c0 -19 -4 -38 -10 -41 -16 -10 -12 -23 11 -36 31 -16 39 0
32 59 -7 61 -33 75 -33 18z"/>
<path d="M4272 414 c-16 -11 -22 -25 -22 -55 0 -40 42 -139 60 -139 15 0 22
19 12 36 -8 14 -1 24 32 49 40 30 41 31 57 11 28 -34 41 -10 19 34 -37 73
-106 101 -158 64z m88 -32 l22 -18 -33 -25 c-57 -43 -58 -43 -76 -5 -13 29
-14 38 -3 51 17 20 63 19 90 -3z"/>
<path d="M933 358 c1 -20 5 -34 9 -30 4 4 3 21 -1 37 -9 30 -9 30 -8 -7z"/>
<path d="M862 332 c-11 -25 -11 -25 4 -10 9 9 15 21 13 27 -2 6 -10 -2 -17
-17z"/>
<path d="M1960 211 c-23 -7 -25 -11 -21 -61 4 -73 13 -83 57 -63 19 9 34 23
34 30 0 16 -1 16 -37 3 l-28 -10 25 20 c16 13 39 19 65 19 22 -1 31 -3 20 -6
-30 -7 -42 -22 -26 -32 25 -16 66 3 69 32 3 24 -1 28 -29 34 -31 6 -32 7 -9
15 18 7 21 11 12 20 -9 9 -20 10 -42 1 -18 -7 -32 -7 -36 -2 -6 10 -18 10 -54
0z m50 -31 c0 -5 -7 -10 -16 -10 -8 0 -12 5 -9 10 3 6 10 10 16 10 5 0 9 -4 9
-10z"/>
<path d="M2122 208 c-16 -20 -1 -36 41 -45 48 -10 52 -25 10 -38 -47 -13 -44
-39 3 -32 70 12 86 54 32 87 -18 11 -32 23 -30 27 5 14 -44 14 -56 1z"/>
<path d="M1292 180 c0 -19 2 -27 5 -17 2 9 2 25 0 35 -3 9 -5 1 -5 -18z"/>
<path d="M1874 196 c-3 -9 -4 -23 0 -31 7 -18 2 -19 -25 -2 -18 10 -23 9 -26
-1 -4 -10 -9 -10 -23 3 -27 24 -54 15 -58 -18 -2 -16 2 -35 9 -43 8 -10 8 -14
0 -14 -17 0 -13 -20 5 -27 8 -3 25 4 38 16 17 16 25 18 34 9 10 -10 14 -8 18
10 7 23 19 29 29 12 3 -5 15 -10 26 -10 16 0 19 4 13 22 -3 12 -8 36 -9 52 -3
33 -22 47 -31 22z"/>
<path d="M693 189 c3 -9 1 -21 -5 -27 -8 -8 -5 -11 11 -9 25 2 26 6 4 32 -11
14 -14 15 -10 4z"/>
<path d="M1386 184 c-10 -26 -7 -41 9 -41 8 0 15 6 15 14 0 7 -4 13 -10 13 -5
0 -7 7 -4 15 4 8 4 15 1 15 -3 0 -8 -7 -11 -16z"/>
<path d="M901 164 c0 -11 3 -14 6 -6 3 7 2 16 -1 19 -3 4 -6 -2 -5 -13z"/>
<path d="M1160 173 c0 -5 5 -15 10 -23 8 -12 10 -11 10 8 0 12 -4 22 -10 22
-5 0 -10 -3 -10 -7z"/>
<path d="M750 159 c0 -5 5 -7 10 -4 6 3 10 8 10 11 0 2 -4 4 -10 4 -5 0 -10
-5 -10 -11z"/>
<path d="M960 150 c0 -11 2 -20 4 -20 2 0 6 9 9 20 3 11 1 20 -4 20 -5 0 -9
-9 -9 -20z"/>
<path d="M1425 151 c-3 -5 -1 -12 5 -16 5 -3 10 1 10 9 0 18 -6 21 -15 7z"/>
<path d="M1517 153 c-4 -3 -7 -11 -7 -17 0 -6 5 -5 12 2 6 6 9 14 7 17 -3 3
-9 2 -12 -2z"/>
<path d="M5046 35 c-33 -14 -62 -27 -64 -30 -3 -3 27 -5 66 -5 l72 0 0 30 c0
17 -3 30 -7 30 -5 -1 -35 -12 -67 -25z"/>
</g>
</svg>
